<svg aria-hidden="true" style="position: absolute; width: 0; height: 0; overflow: hidden;"
    version="1.1" xmlns="http://www.w3.org/2000/svg" xmlns:xlink="http://www.w3.org/1999/xlink">
    <defs>
        <symbol id="icon-dashboard" viewBox="0 0 24 24">
            <path
                d="M4 13H10C10.2652 13 10.5196 12.8946 10.7071 12.7071C10.8946 12.5196 11 12.2652 11 12V4C11 3.73478 10.8946 3.48043 10.7071 3.29289C10.5196 3.10536 10.2652 3 10 3H4C3.73478 3 3.48043 3.10536 3.29289 3.29289C3.10536 3.48043 3 3.73478 3 4V12C3 12.2652 3.10536 12.5196 3.29289 12.7071C3.48043 12.8946 3.73478 13 4 13ZM3 20C3 20.2652 3.10536 20.5196 3.29289 20.7071C3.48043 20.8946 3.73478 21 4 21H10C10.2652 21 10.5196 20.8946 10.7071 20.7071C10.8946 20.5196 11 20.2652 11 20V16C11 15.7348 10.8946 15.4804 10.7071 15.2929C10.5196 15.1054 10.2652 15 10 15H4C3.73478 15 3.48043 15.1054 3.29289 15.2929C3.10536 15.4804 3 15.7348 3 16V20ZM13 20C13 20.2652 13.1054 20.5196 13.2929 20.7071C13.4804 20.8946 13.7348 21 14 21H20C20.2652 21 20.5196 20.8946 20.7071 20.7071C20.8946 20.5196 21 20.2652 21 20V13C21 12.7348 20.8946 12.4804 20.7071 12.2929C20.5196 12.1054 20.2652 12 20 12H14C13.7348 12 13.4804 12.1054 13.2929 12.2929C13.1054 12.4804 13 12.7348 13 13V20ZM14 10H20C20.2652 10 20.5196 9.89464 20.7071 9.70711C20.8946 9.51957 21 9.26522 21 9V4C21 3.73478 20.8946 3.48043 20.7071 3.29289C20.5196 3.10536 20.2652 3 20 3H14C13.7348 3 13.4804 3.10536 13.2929 3.29289C13.1054 3.48043 13 3.73478 13 4V9C13 9.26522 13.1054 9.51957 13.2929 9.70711C13.4804 9.89464 13.7348 10 14 10Z" />
        </symbol>
        <symbol id="icon-user" viewBox="0 0 23 23">
            <path
                d="M19.2828 17.1512C18.8591 16.1476 18.2442 15.2359 17.4724 14.4671C16.703 13.696 15.7915 13.0813 14.7883 12.6567C14.7794 12.6522 14.7704 12.65 14.7614 12.6455C16.1607 11.6348 17.0704 9.98838 17.0704 8.13086C17.0704 5.05371 14.5772 2.56055 11.5001 2.56055C8.42291 2.56055 5.92974 5.05371 5.92974 8.13086C5.92974 9.98838 6.83941 11.6348 8.23873 12.6478C8.22974 12.6522 8.22076 12.6545 8.21177 12.659C7.20552 13.0835 6.3026 13.6922 5.52769 14.4693C4.75663 15.2388 4.14186 16.1502 3.71734 17.1534C3.30029 18.1355 3.07537 19.1885 3.05474 20.2553C3.05414 20.2792 3.05835 20.3031 3.06711 20.3254C3.07587 20.3477 3.08901 20.3681 3.10576 20.3852C3.1225 20.4024 3.14252 20.416 3.16461 20.4254C3.18671 20.4347 3.21045 20.4395 3.23443 20.4395H4.58209C4.68092 20.4395 4.75953 20.3608 4.76177 20.2643C4.8067 18.5303 5.50299 16.9063 6.73384 15.6755C8.00738 14.402 9.69869 13.7012 11.5001 13.7012C13.3014 13.7012 14.9927 14.402 16.2663 15.6755C17.4971 16.9063 18.1934 18.5303 18.2383 20.2643C18.2406 20.3631 18.3192 20.4395 18.418 20.4395H19.7657C19.7897 20.4395 19.8134 20.4347 19.8355 20.4254C19.8576 20.416 19.8776 20.4024 19.8944 20.3852C19.9111 20.3681 19.9242 20.3477 19.933 20.3254C19.9418 20.3031 19.946 20.2792 19.9454 20.2553C19.9229 19.1816 19.7005 18.1372 19.2828 17.1512ZM11.5001 11.9941C10.4691 11.9941 9.49879 11.5921 8.76881 10.8621C8.03883 10.1321 7.63677 9.16182 7.63677 8.13086C7.63677 7.0999 8.03883 6.12959 8.76881 5.39961C9.49879 4.66963 10.4691 4.26758 11.5001 4.26758C12.531 4.26758 13.5013 4.66963 14.2313 5.39961C14.9613 6.12959 15.3633 7.0999 15.3633 8.13086C15.3633 9.16182 14.9613 10.1321 14.2313 10.8621C13.5013 11.5921 12.531 11.9941 11.5001 11.9941Z" />
        </symbol>
        <symbol id="icon-users" viewBox="0 0 24 24">
            <path
                d="M18 21v-2c0-1.38-0.561-2.632-1.464-3.536s-2.156-1.464-3.536-1.464h-8c-1.38 0-2.632 0.561-3.536 1.464s-1.464 2.156-1.464 3.536v2c0 0.552 0.448 1 1 1s1-0.448 1-1v-2c0-0.829 0.335-1.577 0.879-2.121s1.292-0.879 2.121-0.879h8c0.829 0 1.577 0.335 2.121 0.879s0.879 1.292 0.879 2.121v2c0 0.552 0.448 1 1 1s1-0.448 1-1zM14 7c0-1.38-0.561-2.632-1.464-3.536s-2.156-1.464-3.536-1.464-2.632 0.561-3.536 1.464-1.464 2.156-1.464 3.536 0.561 2.632 1.464 3.536 2.156 1.464 3.536 1.464 2.632-0.561 3.536-1.464 1.464-2.156 1.464-3.536zM12 7c0 0.829-0.335 1.577-0.879 2.121s-1.292 0.879-2.121 0.879-1.577-0.335-2.121-0.879-0.879-1.292-0.879-2.121 0.335-1.577 0.879-2.121 1.292-0.879 2.121-0.879 1.577 0.335 2.121 0.879 0.879 1.292 0.879 2.121zM24 21v-2c-0.001-1.245-0.457-2.385-1.215-3.261-0.652-0.753-1.528-1.311-2.529-1.576-0.534-0.141-1.081 0.177-1.222 0.711s0.177 1.081 0.711 1.222c0.607 0.161 1.136 0.498 1.528 0.952 0.454 0.526 0.726 1.206 0.727 1.952v2c0 0.552 0.448 1 1 1s1-0.448 1-1zM15.752 4.099c0.803 0.206 1.445 0.715 1.837 1.377s0.531 1.47 0.325 2.273c-0.176 0.688-0.575 1.256-1.105 1.652-0.314 0.235-0.675 0.409-1.063 0.511-0.534 0.14-0.854 0.687-0.713 1.221s0.687 0.854 1.221 0.713c0.637-0.167 1.232-0.455 1.752-0.844 0.884-0.66 1.552-1.613 1.845-2.758 0.342-1.337 0.11-2.689-0.542-3.788s-1.725-1.953-3.062-2.296c-0.535-0.137-1.080 0.186-1.217 0.721s0.186 1.080 0.721 1.217z"></path>
        </symbol>
        <symbol id="icon-plus" viewBox="0 0 24 24">
            <path
                d="M5 13h6v6c0 0.552 0.448 1 1 1s1-0.448 1-1v-6h6c0.552 0 1-0.448 1-1s-0.448-1-1-1h-6v-6c0-0.552-0.448-1-1-1s-1 0.448-1 1v6h-6c-0.552 0-1 0.448-1 1s0.448 1 1 1z"></path>
        </symbol>

        <symbol id="icon-plus_outline" viewBox="0 0 24 24">
            <path
                d="M12 20.016q3.281 0 5.648-2.367t2.367-5.648-2.367-5.648-5.648-2.367-5.648 2.367-2.367 5.648 2.367 5.648 5.648 2.367zM12 2.016q4.125 0 7.055 2.93t2.93 7.055-2.93 7.055-7.055 2.93-7.055-2.93-2.93-7.055 2.93-7.055 7.055-2.93zM12.984 6.984v4.031h4.031v1.969h-4.031v4.031h-1.969v-4.031h-4.031v-1.969h4.031v-4.031h1.969z"></path>
        </symbol>
        <symbol id="icon-edit" viewBox="0 0 24 24">
            <path
                d="M12 21h9c0.552 0 1-0.448 1-1s-0.448-1-1-1h-9c-0.552 0-1 0.448-1 1s0.448 1 1 1zM15.793 2.793l-12.5 12.5c-0.122 0.121-0.217 0.28-0.263 0.465l-1 4c-0.039 0.15-0.042 0.318 0 0.485 0.134 0.536 0.677 0.862 1.213 0.728l4-1c0.167-0.041 0.33-0.129 0.465-0.263l12.5-12.5c0.609-0.609 0.914-1.41 0.914-2.207s-0.305-1.598-0.914-2.207-1.411-0.915-2.208-0.915-1.598 0.305-2.207 0.914zM17.207 4.207c0.219-0.219 0.504-0.328 0.793-0.328s0.574 0.109 0.793 0.328 0.328 0.504 0.328 0.793-0.109 0.574-0.328 0.793l-12.304 12.304-2.115 0.529 0.529-2.115z"></path>
        </symbol>
        <symbol id="icon-logout" viewBox="0 0 24 24">
            <path
                d="M3.984 5.016v13.969h8.016v2.016h-8.016q-0.797 0-1.383-0.609t-0.586-1.406v-13.969q0-0.797 0.586-1.406t1.383-0.609h8.016v2.016h-8.016zM17.016 6.984l4.969 5.016-4.969 5.016-1.406-1.453 2.578-2.578h-10.172v-1.969h10.172l-2.578-2.625z"></path>
        </symbol>
        <symbol id="icon-arrow_right" viewBox="0 0 24 24">
            <path d="M16.031 11.016v-3l3.984 3.984-3.984 3.984v-3h-12.047v-1.969h12.047z"></path>
        </symbol>
        <symbol id="icon-back" viewBox="0 0 24 24">
            <path
                d="M21 11.016v1.969h-14.156l3.563 3.609-1.406 1.406-6-6 6-6 1.406 1.406-3.563 3.609h14.156z"></path>
        </symbol>
        <symbol id="icon-key" viewBox="0 0 24 24">
            <path
                d="M6.984 14.016q0.797 0 1.406-0.609t0.609-1.406-0.609-1.406-1.406-0.609-1.383 0.609-0.586 1.406 0.586 1.406 1.383 0.609zM12.656 9.984h10.359v4.031h-2.016v3.984h-3.984v-3.984h-4.359q-0.609 1.641-2.273 2.813t-3.398 1.172q-2.484 0-4.242-1.758t-1.758-4.242 1.758-4.242 4.242-1.758q1.734 0 3.398 1.172t2.273 2.813z"></path>
        </symbol>
        <symbol id="icon-cancel" viewBox="0 0 24 24">
            <path
                d="M17.016 15.609l-3.609-3.609 3.609-3.609-1.406-1.406-3.609 3.609-3.609-3.609-1.406 1.406 3.609 3.609-3.609 3.609 1.406 1.406 3.609-3.609 3.609 3.609zM12 2.016q4.125 0 7.055 2.93t2.93 7.055-2.93 7.055-7.055 2.93-7.055-2.93-2.93-7.055 2.93-7.055 7.055-2.93z"></path>
        </symbol>
        <symbol id="icon-close" viewBox="0 0 20 20">
            <path
                d="M10 8.586l-7.071-7.071-1.414 1.414 7.071 7.071-7.071 7.071 1.414 1.414 7.071-7.071 7.071 7.071 1.414-1.414-7.071-7.071 7.071-7.071-1.414-1.414-7.071 7.071z"></path>
        </symbol>
        <symbol id="icon-visibility_off" viewBox="0 0 24 24">
            <path
                d="M11.859 9h0.141q1.219 0 2.109 0.891t0.891 2.109v0.188zM7.547 9.797q-0.563 1.125-0.563 2.203 0 2.063 1.477 3.539t3.539 1.477q1.078 0 2.203-0.563l-1.547-1.547q-0.375 0.094-0.656 0.094-1.219 0-2.109-0.891t-0.891-2.109q0-0.281 0.094-0.656zM2.016 4.266l1.266-1.266 17.719 17.719-1.266 1.266q-0.234-0.234-1.477-1.453t-1.898-1.875q-2.016 0.844-4.359 0.844-3.703 0-6.703-2.063t-4.313-5.438q0.516-1.219 1.617-2.695t2.133-2.273q-0.563-0.563-1.57-1.594t-1.148-1.172zM12 6.984q-0.938 0-1.828 0.375l-2.156-2.156q1.828-0.703 3.984-0.703 3.703 0 6.68 2.063t4.289 5.438q-1.125 2.766-3.422 4.734l-2.906-2.906q0.375-0.891 0.375-1.828 0-2.063-1.477-3.539t-3.539-1.477z"></path>
        </symbol>
        <symbol id="icon-visibility" viewBox="0 0 24 24">
            <path
                d="M12 9q1.219 0 2.109 0.891t0.891 2.109-0.891 2.109-2.109 0.891-2.109-0.891-0.891-2.109 0.891-2.109 2.109-0.891zM12 17.016q2.063 0 3.539-1.477t1.477-3.539-1.477-3.539-3.539-1.477-3.539 1.477-1.477 3.539 1.477 3.539 3.539 1.477zM12 4.5q3.703 0 6.703 2.063t4.313 5.438q-1.313 3.375-4.313 5.438t-6.703 2.063-6.703-2.063-4.313-5.438q1.313-3.375 4.313-5.438t6.703-2.063z"></path>
        </symbol>
        <symbol id="icon-favorite" viewBox="0 0 24 24">
            <path
                d="M12.094 18.563q2.25-2.016 3.328-3.047t2.344-2.438 1.758-2.484 0.492-2.109q0-1.5-1.008-2.484t-2.508-0.984q-1.172 0-2.18 0.656t-1.383 1.688h-1.875q-0.375-1.031-1.383-1.688t-2.18-0.656q-1.5 0-2.508 0.984t-1.008 2.484q0 1.031 0.492 2.109t1.758 2.484 2.344 2.438 3.328 3.047l0.094 0.094zM16.5 3q2.344 0 3.914 1.594t1.57 3.891q0 1.359-0.516 2.648t-1.898 2.883-2.508 2.672-3.609 3.328l-1.453 1.313-1.453-1.266q-3.234-2.906-4.664-4.359t-2.648-3.422-1.219-3.797q0-2.297 1.57-3.891t3.914-1.594q2.719 0 4.5 2.109 1.781-2.109 4.5-2.109z"></path>
        </symbol>
        <symbol id="icon-play_arrow" viewBox="0 0 24 24">
            <path d="M8.016 5.016l10.969 6.984-10.969 6.984v-13.969z"></path>
        </symbol>
        <symbol id="icon-upload" viewBox="0 0 24 24">
            <path
                d="M20 15v4c0 0.276-0.111 0.525-0.293 0.707s-0.431 0.293-0.707 0.293h-14c-0.276 0-0.525-0.111-0.707-0.293s-0.293-0.431-0.293-0.707v-4c0-0.552-0.448-1-1-1s-1 0.448-1 1v4c0 0.828 0.337 1.58 0.879 2.121s1.293 0.879 2.121 0.879h14c0.828 0 1.58-0.337 2.121-0.879s0.879-1.293 0.879-2.121v-4c0-0.552-0.448-1-1-1s-1 0.448-1 1zM11 5.414v9.586c0 0.552 0.448 1 1 1s1-0.448 1-1v-9.586l3.293 3.293c0.391 0.391 1.024 0.391 1.414 0s0.391-1.024 0-1.414l-5-5c-0.092-0.092-0.202-0.166-0.324-0.217-0.245-0.101-0.521-0.101-0.766 0-0.118 0.049-0.228 0.121-0.324 0.217l-5 5c-0.391 0.391-0.391 1.024 0 1.414s1.024 0.391 1.414 0z"></path>
        </symbol>
        <symbol id="icon-add_circle_outline" viewBox="0 0 24 24">
            <path
                d="M12 20.016q3.281 0 5.648-2.367t2.367-5.648-2.367-5.648-5.648-2.367-5.648 2.367-2.367 5.648 2.367 5.648 5.648 2.367zM12 2.016q4.125 0 7.055 2.93t2.93 7.055-2.93 7.055-7.055 2.93-7.055-2.93-2.93-7.055 2.93-7.055 7.055-2.93zM12.984 6.984v4.031h4.031v1.969h-4.031v4.031h-1.969v-4.031h-4.031v-1.969h4.031v-4.031h1.969z"></path>
        </symbol>
        <symbol id="icon-email" viewBox="0 0 24 24">
            <path
                d="M20.016 8.016v-2.016l-8.016 5.016-8.016-5.016v2.016l8.016 4.969zM20.016 3.984q0.797 0 1.383 0.609t0.586 1.406v12q0 0.797-0.586 1.406t-1.383 0.609h-16.031q-0.797 0-1.383-0.609t-0.586-1.406v-12q0-0.797 0.586-1.406t1.383-0.609h16.031z"></path>
        </symbol>
        <symbol id="icon-phone" viewBox="0 0 24 24">
            <path
                d="M7 1c-0.828 0-1.58 0.337-2.121 0.879s-0.879 1.293-0.879 2.121v16c0 0.828 0.337 1.58 0.879 2.121s1.293 0.879 2.121 0.879h10c0.828 0 1.58-0.337 2.121-0.879s0.879-1.293 0.879-2.121v-16c0-0.828-0.337-1.58-0.879-2.121s-1.293-0.879-2.121-0.879zM7 3h10c0.276 0 0.525 0.111 0.707 0.293s0.293 0.431 0.293 0.707v16c0 0.276-0.111 0.525-0.293 0.707s-0.431 0.293-0.707 0.293h-10c-0.276 0-0.525-0.111-0.707-0.293s-0.293-0.431-0.293-0.707v-16c0-0.276 0.111-0.525 0.293-0.707s0.431-0.293 0.707-0.293zM12 19c0.552 0 1-0.448 1-1s-0.448-1-1-1-1 0.448-1 1 0.448 1 1 1z"></path>
        </symbol>
        <symbol id="icon-chevron-right" viewBox="0 0 24 24">
            <path
                d="M9.707 18.707l6-6c0.391-0.391 0.391-1.024 0-1.414l-6-6c-0.391-0.391-1.024-0.391-1.414 0s-0.391 1.024 0 1.414l5.293 5.293-5.293 5.293c-0.391 0.391-0.391 1.024 0 1.414s1.024 0.391 1.414 0z"></path>
        </symbol>
        <symbol id="icon-chevron-left" viewBox="0 0 24 24">
            <path
                d="M15.707 17.293l-5.293-5.293 5.293-5.293c0.391-0.391 0.391-1.024 0-1.414s-1.024-0.391-1.414 0l-6 6c-0.391 0.391-0.391 1.024 0 1.414l6 6c0.391 0.391 1.024 0.391 1.414 0s0.391-1.024 0-1.414z"></path>
        </symbol>
        <symbol id='icon-sidebar-arrow-box' viewBox="0 0 31 80">
            <path
                d="M30.0709 0L26.0042 5.69743C22.9513 9.96756 19.2972 13.7658 15.1362 16.9625L11.7532 19.5694C4.70424 23.5565 0.283928 30.9879 0.142478 39.0917L0.13069 39.882C-0.90661 49.6845 4.30346 59.0858 13.1794 63.3913L14.7354 64.1463C20.1812 66.5526 24.6251 70.752 27.3244 76.0602L29.3283 80L30.0709 0Z" />
        </symbol>

        <symbol id="icon-delete" viewBox="0 0 24 24">
            <path
                d="M18 7v13c0 0.276-0.111 0.525-0.293 0.707s-0.431 0.293-0.707 0.293h-10c-0.276 0-0.525-0.111-0.707-0.293s-0.293-0.431-0.293-0.707v-13zM17 5v-1c0-0.828-0.337-1.58-0.879-2.121s-1.293-0.879-2.121-0.879h-4c-0.828 0-1.58 0.337-2.121 0.879s-0.879 1.293-0.879 2.121v1h-4c-0.552 0-1 0.448-1 1s0.448 1 1 1h1v13c0 0.828 0.337 1.58 0.879 2.121s1.293 0.879 2.121 0.879h10c0.828 0 1.58-0.337 2.121-0.879s0.879-1.293 0.879-2.121v-13h1c0.552 0 1-0.448 1-1s-0.448-1-1-1zM9 5v-1c0-0.276 0.111-0.525 0.293-0.707s0.431-0.293 0.707-0.293h4c0.276 0 0.525 0.111 0.707 0.293s0.293 0.431 0.293 0.707v1z"></path>
        </symbol>
        <symbol id="icon-search" viewBox="0 0 24 24">
            <path
                d="M16.041 15.856c-0.034 0.026-0.067 0.055-0.099 0.087s-0.060 0.064-0.087 0.099c-1.258 1.213-2.969 1.958-4.855 1.958-1.933 0-3.682-0.782-4.95-2.050s-2.050-3.017-2.050-4.95 0.782-3.682 2.050-4.95 3.017-2.050 4.95-2.050 3.682 0.782 4.95 2.050 2.050 3.017 2.050 4.95c0 1.886-0.745 3.597-1.959 4.856zM21.707 20.293l-3.675-3.675c1.231-1.54 1.968-3.493 1.968-5.618 0-2.485-1.008-4.736-2.636-6.364s-3.879-2.636-6.364-2.636-4.736 1.008-6.364 2.636-2.636 3.879-2.636 6.364 1.008 4.736 2.636 6.364 3.879 2.636 6.364 2.636c2.125 0 4.078-0.737 5.618-1.968l3.675 3.675c0.391 0.391 1.024 0.391 1.414 0s0.391-1.024 0-1.414z"></path>
        </symbol>
        <symbol id="icon-birthday-cake" viewBox="0 0 28 28">
            <path
                d="M28 22v6h-28v-6c1.531 0 2.344-0.688 2.984-1.234 0.531-0.469 0.891-0.766 1.687-0.766s1.141 0.297 1.687 0.766c0.641 0.547 1.437 1.234 2.984 1.234 1.531 0 2.328-0.688 2.984-1.234 0.531-0.469 0.875-0.766 1.672-0.766s1.156 0.297 1.687 0.766c0.641 0.547 1.453 1.234 2.984 1.234s2.344-0.688 2.984-1.234c0.531-0.469 0.891-0.766 1.687-0.766 0.781 0 1.141 0.297 1.672 0.766 0.641 0.547 1.453 1.234 2.984 1.234zM28 17v3c-0.797 0-1.141-0.297-1.687-0.766-0.641-0.547-1.437-1.234-2.969-1.234-1.547 0-2.344 0.688-2.984 1.234-0.547 0.469-0.891 0.766-1.687 0.766s-1.156-0.297-1.687-0.766c-0.641-0.547-1.437-1.234-2.984-1.234-1.531 0-2.328 0.688-2.984 1.234-0.531 0.469-0.875 0.766-1.672 0.766s-1.156-0.297-1.687-0.766c-0.641-0.547-1.453-1.234-2.984-1.234-1.547 0-2.344 0.688-2.984 1.234-0.531 0.469-0.891 0.766-1.687 0.766v-3c0-1.656 1.344-3 3-3h1v-7h4v7h4v-7h4v7h4v-7h4v7h1c1.656 0 3 1.344 3 3zM8 3.5c0 1.656-0.891 2.5-2 2.5s-2-0.891-2-2c0-1.937 2-1.437 2-4 0.75 0 2 1.844 2 3.5zM16 3.5c0 1.656-0.891 2.5-2 2.5s-2-0.891-2-2c0-1.937 2-1.437 2-4 0.75 0 2 1.844 2 3.5zM24 3.5c0 1.656-0.891 2.5-2 2.5s-2-0.891-2-2c0-1.937 2-1.437 2-4 0.75 0 2 1.844 2 3.5z"></path>
        </symbol>
        <symbol id="icon-man-woman" viewBox="0 0 32 32">
            <path d="M8 3c0 1.657-1.343 3-3 3s-3-1.343-3-3c0-1.657 1.343-3 3-3s3 1.343 3 3z"></path>
            <path d="M26 3c0 1.657-1.343 3-3 3s-3-1.343-3-3c0-1.657 1.343-3 3-3s3 1.343 3 3z"></path>
            <path
                d="M8 8h-6c-1.105 0-2 0.895-2 2v10h2v12h2.5v-12h1v12h2.5v-12h2v-10c0-1.105-0.895-2-2-2z"></path>
            <path
                d="M30.469 16l1.531-1.109-4.165-6.441c-0.185-0.281-0.499-0.45-0.835-0.45h-8c-0.336 0-0.65 0.169-0.835 0.45l-4.165 6.441 1.531 1.109 3.458-4.487 1.202 2.804-4.191 7.683h3.833l0.667 10h2v-10h1v10h2l0.667-10h3.833l-4.191-7.683 1.202-2.804 3.458 4.487z"></path>
        </symbol>
        <symbol id='icon-gym' viewBox="0 0 24 24">
            <path d="M20.274 9.86901L16.832 4.95401L18.471 3.80701L21.912 8.72201L20.274 9.86901Z" />
            <path
                d="M18.39 12.409L16.67 9.95003L8.47798 15.686L10.198 18.143L8.55999 19.291L3.97198 12.737L5.60999 11.59L7.32998 14.048L15.522 8.31203L13.802 5.85403L15.44 4.70703L20.028 11.26L18.39 12.408V12.409Z" />
            <path d="M20.765 7.08303L22.403 5.93603L21.256 4.29803L19.618 5.44503L20.765 7.08303Z" />
            <path
                d="M7.16801 19.046L3.72601 14.131L2.08801 15.278L5.52901 20.193L7.16801 19.046V19.046Z" />
            <path d="M4.38198 18.555L2.74398 19.702L1.59698 18.064L3.23498 16.917L4.38198 18.555Z" />
        </symbol>
        <symbol id="icon-archive" viewBox="0 0 24 24">
            <path
                d="M13 12h-3c-0.276 0-0.5 0.224-0.5 0.5s0.224 0.5 0.5 0.5h3c0.276 0 0.5-0.224 0.5-0.5s-0.224-0.5-0.5-0.5z"></path>
            <path
                d="M20 5h-17c-0.553 0-1 0.448-1 1s0.447 1 1 1h17c0.553 0 1-0.448 1-1s-0.447-1-1-1z"></path>
            <path
                d="M18 8h-13c-0.553 0-1 0.448-1 1v8c0 1.654 1.346 3 3 3h9c1.654 0 3-1.346 3-3v-8c0-0.552-0.447-1-1-1zM16 18h-9c-0.552 0-1-0.449-1-1v-7h11v7c0 0.551-0.448 1-1 1z"></path>
        </symbol>
        <symbol id="icon-shopping-basket" viewBox="0 0 20 20">
            <path
                d="M18.399 7h-5.007l-1.812 1.812c-0.453 0.453-1.056 0.702-1.696 0.702-0.642 0-1.244-0.25-1.698-0.703-0.452-0.452-0.702-1.054-0.703-1.695 0-0.039 0.010-0.077 0.011-0.116h-5.894c-0.332 0-0.6 0.268-0.6 0.6v2.4h18v-2.4c0-0.332-0.27-0.6-0.601-0.6zM10.768 7.999l5.055-5.055c0.235-0.234 0.237-0.613 0.002-0.849l-0.92-0.92c-0.234-0.234-0.614-0.233-0.85 0l-5.055 5.056c-0.488 0.488-0.488 1.28 0 1.768 0.488 0.487 1.279 0.488 1.768 0zM3.823 17.271c0.097 0.401 0.515 0.729 0.927 0.729h10.5c0.412 0 0.83-0.328 0.927-0.729l1.523-6.271h-15.4l1.523 6.271z"></path>
        </symbol>
        <symbol id="icon-lock" viewBox="0 0 24 24">
            <path
                d="M5 12h14c0.276 0 0.525 0.111 0.707 0.293s0.293 0.431 0.293 0.707v7c0 0.276-0.111 0.525-0.293 0.707s-0.431 0.293-0.707 0.293h-14c-0.276 0-0.525-0.111-0.707-0.293s-0.293-0.431-0.293-0.707v-7c0-0.276 0.111-0.525 0.293-0.707s0.431-0.293 0.707-0.293zM18 10v-3c0-1.657-0.673-3.158-1.757-4.243s-2.586-1.757-4.243-1.757-3.158 0.673-4.243 1.757-1.757 2.586-1.757 4.243v3h-1c-0.828 0-1.58 0.337-2.121 0.879s-0.879 1.293-0.879 2.121v7c0 0.828 0.337 1.58 0.879 2.121s1.293 0.879 2.121 0.879h14c0.828 0 1.58-0.337 2.121-0.879s0.879-1.293 0.879-2.121v-7c0-0.828-0.337-1.58-0.879-2.121s-1.293-0.879-2.121-0.879zM8 10v-3c0-1.105 0.447-2.103 1.172-2.828s1.723-1.172 2.828-1.172 2.103 0.447 2.828 1.172 1.172 1.723 1.172 2.828v3z"></path>
        </symbol>
        <symbol id="icon-close" viewBox="0 0 20 20">
            <path
                d="M10 8.586l-7.071-7.071-1.414 1.414 7.071 7.071-7.071 7.071 1.414 1.414 7.071-7.071 7.071 7.071 1.414-1.414-7.071-7.071 7.071-7.071-1.414-1.414-7.071 7.071z"></path>
        </symbol>
        <symbol id="icon-check" viewBox="0 0 24 24">
            <path
                d="M19.293 5.293l-10.293 10.293-4.293-4.293c-0.391-0.391-1.024-0.391-1.414 0s-0.391 1.024 0 1.414l5 5c0.391 0.391 1.024 0.391 1.414 0l11-11c0.391-0.391 0.391-1.024 0-1.414s-1.024-0.391-1.414 0z"></path>
        </symbol>
        <symbol id='icon-trainer' viewBox="0 0 24 24">
            <path
                d="M15.8977 15.3609C16.4648 15.0563 17.1141 14.8828 17.8055 14.8828H17.8078C17.8781 14.8828 17.9109 14.7984 17.8594 14.7516C17.1403 14.1063 16.319 13.5851 15.4289 13.2094C15.4195 13.2047 15.4102 13.2023 15.4008 13.1977C16.8563 12.1406 17.8031 10.4227 17.8031 8.48438C17.8031 5.27344 15.2063 2.67188 12.0023 2.67188C8.79844 2.67188 6.20391 5.27344 6.20391 8.48438C6.20391 10.4227 7.15078 12.1406 8.60859 13.1977C8.59922 13.2023 8.58984 13.2047 8.58047 13.2094C7.53281 13.6523 6.59297 14.2875 5.78437 15.0984C4.98045 15.9009 4.34042 16.8522 3.9 17.8992C3.46667 18.9245 3.23281 20.023 3.21094 21.1359C3.21031 21.161 3.2147 21.1858 3.22384 21.2091C3.23298 21.2324 3.24669 21.2537 3.26417 21.2716C3.28164 21.2895 3.30252 21.3037 3.32558 21.3134C3.34864 21.3231 3.37341 21.3281 3.39844 21.3281H4.80234C4.90312 21.3281 4.9875 21.2461 4.98984 21.1453C5.03672 19.3359 5.76094 17.6414 7.04297 16.357C8.36719 15.0281 10.1297 14.2969 12.0047 14.2969C13.3336 14.2969 14.6086 14.6648 15.7078 15.3539C15.7361 15.3716 15.7685 15.3816 15.8018 15.3829C15.8351 15.3841 15.8682 15.3765 15.8977 15.3609ZM12.0047 12.5156C10.9313 12.5156 9.92109 12.0961 9.15937 11.3344C8.7846 10.9606 8.48749 10.5163 8.28515 10.0272C8.08282 9.53804 7.97927 9.0137 7.98047 8.48438C7.98047 7.40859 8.4 6.39609 9.15937 5.63437C9.91875 4.87266 10.9289 4.45313 12.0047 4.45313C13.0805 4.45313 14.0883 4.87266 14.85 5.63437C15.2248 6.00818 15.5219 6.45245 15.7242 6.94158C15.9266 7.43071 16.0301 7.95505 16.0289 8.48438C16.0289 9.56016 15.6094 10.5727 14.85 11.3344C14.0883 12.0961 13.0781 12.5156 12.0047 12.5156Z" />
            <path
                d="M21.7945 17.2993L20.6125 14.0523L21.6951 13.6585L22.8766 16.9054L21.7945 17.2993Z" />
            <path
                d="M20.368 18.4314L19.7777 16.8072L14.366 18.7769L14.9565 20.3999L13.8743 20.7944L12.2991 16.4649L13.3812 16.071L13.9716 17.6946L19.3833 15.7249L18.7929 14.1013L19.875 13.7074L21.4504 18.0364L20.3681 18.4308L20.368 18.4314Z" />
            <path
                d="M22.4829 15.8228L23.565 15.4289L23.1711 14.3468L22.0891 14.7407L22.4829 15.8228Z" />
            <path
                d="M13.1365 20.4506L11.9545 17.2036L10.8724 17.5975L12.0539 20.8443L13.1365 20.4506V20.4506Z" />
            <path d="M11.66 19.7622L10.5779 20.1561L10.184 19.074L11.2661 18.6801L11.66 19.7622Z" />
        </symbol>
        <symbol id='icon-checkin' viewBox="0 0 24 24">
            <path
                d="M12 1.33331C6.84506 1.33981 2.66669 5.49348 2.66669 10.6171C2.66669 17.9837 9.3594 21.6933 11.3451 22.554C11.5169 22.6289 11.7005 22.6666 11.8835 22.6666C11.9226 22.6666 11.9609 22.6581 12 22.6549C12.0391 22.6581 12.0775 22.6666 12.1166 22.6666C12.2995 22.6666 12.4831 22.6289 12.655 22.554C14.6406 21.6934 21.3334 17.9837 21.3334 10.6171C21.3334 5.49348 17.1556 1.33981 12 1.33331V1.33331ZM12.1172 19.86C12.082 19.8418 12.0384 19.819 12 19.7995C11.9616 19.819 11.918 19.8418 11.8829 19.86C10.1719 18.9961 5.33335 16.069 5.33335 10.6171C5.33335 6.97198 8.32294 4.00648 12 3.99998C15.6771 4.00648 18.6667 6.97198 18.6667 10.6171C18.6667 16.069 13.8281 18.9961 12.1172 19.86Z" />
            <path
                d="M12 7.99933C10.5273 7.99933 9.33331 9.19333 9.33331 10.6667C9.33331 12.1393 10.5273 13.3333 12 13.3333C13.4726 13.3333 14.6666 12.1393 14.6666 10.6667C14.6666 9.19337 13.4726 7.99933 12 7.99933V7.99933Z" />
        </symbol>
        <symbol id="icon-film" viewBox="0 0 24 24">
            <path
                d="M16 11h-8v-8h8zM8 13h8v8h-8zM6 6h-3v-1.82c0-0.326 0.131-0.62 0.346-0.834s0.508-0.346 0.834-0.346h1.82zM3 8h3v3h-3zM6 16h-3v-3h3zM3 18h3v3h-1.82c-0.326 0-0.62-0.131-0.834-0.346s-0.346-0.508-0.346-0.834zM21 16h-3v-3h3zM18 18h3v1.82c0 0.326-0.131 0.62-0.346 0.834s-0.508 0.346-0.834 0.346h-1.82zM21 6h-3v-3h1.82c0.326 0 0.62 0.131 0.834 0.346s0.346 0.508 0.346 0.834zM23 7v-2.82c0-0.878-0.357-1.674-0.931-2.249s-1.371-0.931-2.249-0.931h-15.64c-0.878 0-1.674 0.357-2.249 0.931s-0.931 1.371-0.931 2.249v15.64c0 0.878 0.357 1.674 0.931 2.249s1.371 0.931 2.249 0.931h15.64c0.878 0 1.674-0.357 2.249-0.931s0.931-1.371 0.931-2.249zM18 8h3v3h-3z"></path>
        </symbol>
        <symbol id="icon-shopping-bag" viewBox="0 0 28 28">
            <path
                d="M27.453 22l0.547 4.891c0.031 0.281-0.063 0.562-0.25 0.781-0.187 0.203-0.469 0.328-0.75 0.328h-26c-0.281 0-0.562-0.125-0.75-0.328-0.187-0.219-0.281-0.5-0.25-0.781l0.547-4.891h26.906zM26 8.891l1.344 12.109h-26.688l1.344-12.109c0.063-0.5 0.484-0.891 1-0.891h4v2c0 1.109 0.891 2 2 2s2-0.891 2-2v-2h6v2c0 1.109 0.891 2 2 2s2-0.891 2-2v-2h4c0.516 0 0.938 0.391 1 0.891zM20 6v4c0 0.547-0.453 1-1 1s-1-0.453-1-1v-4c0-2.203-1.797-4-4-4s-4 1.797-4 4v4c0 0.547-0.453 1-1 1s-1-0.453-1-1v-4c0-3.313 2.688-6 6-6s6 2.688 6 6z"></path>
        </symbol>
        <symbol id="icon-pin" viewBox="0 0 512 512">
            <path fill="white"
                d="M256 32c-88.22 0-160 68.65-160 153 0 40.17 18.31 93.59 54.42 158.78 29 52.34 62.55 99.67 80 123.22a31.75 31.75 0 0051.22 0c17.42-23.55 51-70.88 80-123.22C397.69 278.61 416 225.19 416 185c0-84.35-71.78-153-160-153zm0 224a64 64 0 1164-64 64.07 64.07 0 01-64 64z" />
        </symbol>

        <symbol id="icon-cash" viewBox="0 0 512 512">
            <rect x="32" y="80" width="448" height="256" rx="16" ry="16"
                transform="rotate(180 256 208)" fill="none" stroke="currentColor"
                stroke-linejoin="round" stroke-width="32" />
            <path fill="none" stroke="currentColor" stroke-linecap="round" stroke-linejoin="round"
                stroke-width="32" d="M64 384h384M96 432h320" />
            <circle cx="256" cy="208" r="80" fill="none" stroke="currentColor"
                stroke-linecap="round" stroke-linejoin="round" stroke-width="32" />
            <path
                d="M480 160a80 80 0 01-80-80M32 160a80 80 0 0080-80M480 256a80 80 0 00-80 80M32 256a80 80 0 0180 80"
                fill="none" stroke="currentColor" stroke-linecap="round" stroke-linejoin="round"
                stroke-width="32" />
        </symbol>


        <symbol id="icon-up" viewBox="0 0 512 512">
            <path fill="none" stroke="currentColor" stroke-linecap="round" stroke-linejoin="round"
                stroke-width="48" d="M112 328l144-144 144 144" />
        </symbol>


        <symbol id="icon-down" viewBox="0 0 512 512">
            <path fill="none" stroke="currentColor" stroke-linecap="round" stroke-linejoin="round"
                stroke-width="48" d="M112 184l144 144 144-144" />
        </symbol>

        <symbol id="icon-key" viewBox="0 0 512 512">
            <path
                d="M218.1 167.17c0 13 0 25.6 4.1 37.4-43.1 50.6-156.9 184.3-167.5 194.5a20.17 20.17 0 00-6.7 15c0 8.5 5.2 16.7 9.6 21.3 6.6 6.9 34.8 33 40 28 15.4-15 18.5-19 24.8-25.2 9.5-9.3-1-28.3 2.3-36s6.8-9.2 12.5-10.4 15.8 2.9 23.7 3c8.3.1 12.8-3.4 19-9.2 5-4.6 8.6-8.9 8.7-15.6.2-9-12.8-20.9-3.1-30.4s23.7 6.2 34 5 22.8-15.5 24.1-21.6-11.7-21.8-9.7-30.7c.7-3 6.8-10 11.4-11s25 6.9 29.6 5.9c5.6-1.2 12.1-7.1 17.4-10.4 15.5 6.7 29.6 9.4 47.7 9.4 68.5 0 124-53.4 124-119.2S408.5 48 340 48s-121.9 53.37-121.9 119.17zM400 144a32 32 0 11-32-32 32 32 0 0132 32z"
                stroke="currentColor" stroke-linejoin="round" stroke-width="32" />
        </symbol>


        <symbol id="icon-document" viewBox="0 0 24 24">
            <path
                d="M17.586 7h-2.586v-2.586zM20.707 7.293l-6-6c-0.092-0.092-0.202-0.166-0.324-0.217s-0.253-0.076-0.383-0.076h-8c-0.828 0-1.58 0.337-2.121 0.879s-0.879 1.293-0.879 2.121v16c0 0.828 0.337 1.58 0.879 2.121s1.293 0.879 2.121 0.879h12c0.828 0 1.58-0.337 2.121-0.879s0.879-1.293 0.879-2.121v-12c0-0.276-0.112-0.526-0.293-0.707zM13 3v5c0 0.552 0.448 1 1 1h5v11c0 0.276-0.111 0.525-0.293 0.707s-0.431 0.293-0.707 0.293h-12c-0.276 0-0.525-0.111-0.707-0.293s-0.293-0.431-0.293-0.707v-16c0-0.276 0.111-0.525 0.293-0.707s0.431-0.293 0.707-0.293zM16 12h-8c-0.552 0-1 0.448-1 1s0.448 1 1 1h8c0.552 0 1-0.448 1-1s-0.448-1-1-1zM16 16h-8c-0.552 0-1 0.448-1 1s0.448 1 1 1h8c0.552 0 1-0.448 1-1s-0.448-1-1-1zM10 8h-2c-0.552 0-1 0.448-1 1s0.448 1 1 1h2c0.552 0 1-0.448 1-1s-0.448-1-1-1z"></path>
        </symbol>

        <symbol id="icon-setting" viewBox="0 0 512 512">
            <path
                d="M262.29 192.31a64 64 0 1057.4 57.4 64.13 64.13 0 00-57.4-57.4zM416.39 256a154.34 154.34 0 01-1.53 20.79l45.21 35.46a10.81 10.81 0 012.45 13.75l-42.77 74a10.81 10.81 0 01-13.14 4.59l-44.9-18.08a16.11 16.11 0 00-15.17 1.75A164.48 164.48 0 01325 400.8a15.94 15.94 0 00-8.82 12.14l-6.73 47.89a11.08 11.08 0 01-10.68 9.17h-85.54a11.11 11.11 0 01-10.69-8.87l-6.72-47.82a16.07 16.07 0 00-9-12.22 155.3 155.3 0 01-21.46-12.57 16 16 0 00-15.11-1.71l-44.89 18.07a10.81 10.81 0 01-13.14-4.58l-42.77-74a10.8 10.8 0 012.45-13.75l38.21-30a16.05 16.05 0 006-14.08c-.36-4.17-.58-8.33-.58-12.5s.21-8.27.58-12.35a16 16 0 00-6.07-13.94l-38.19-30A10.81 10.81 0 0149.48 186l42.77-74a10.81 10.81 0 0113.14-4.59l44.9 18.08a16.11 16.11 0 0015.17-1.75A164.48 164.48 0 01187 111.2a15.94 15.94 0 008.82-12.14l6.73-47.89A11.08 11.08 0 01213.23 42h85.54a11.11 11.11 0 0110.69 8.87l6.72 47.82a16.07 16.07 0 009 12.22 155.3 155.3 0 0121.46 12.57 16 16 0 0015.11 1.71l44.89-18.07a10.81 10.81 0 0113.14 4.58l42.77 74a10.8 10.8 0 01-2.45 13.75l-38.21 30a16.05 16.05 0 00-6.05 14.08c.33 4.14.55 8.3.55 12.47z"
                stroke="currentColor" stroke-linecap="round" stroke-linejoin="round"
                stroke-width="32" />
        </symbol>

        <symbol id="icon-calendar" viewBox="0 0 512 512">
            <rect fill="none" stroke="currentColor" stroke-linejoin="round" stroke-width="32" x="48"
                y="80" width="416" height="384" rx="48" />
            <circle cx="296" cy="232" r="24" />
            <circle cx="376" cy="232" r="24" />
            <circle cx="296" cy="312" r="24" />
            <circle cx="376" cy="312" r="24" />
            <circle cx="136" cy="312" r="24" />
            <circle cx="216" cy="312" r="24" />
            <circle cx="136" cy="392" r="24" />
            <circle cx="216" cy="392" r="24" />
            <circle cx="296" cy="392" r="24" />
            <path stroke="currentColor" stroke-linejoin="round" stroke-width="32"
                stroke-linecap="round" d="M128 48v32M384 48v32" />
            <path stroke="currentColor" stroke-linejoin="round" stroke-width="32" d="M464 160H48" />
        </symbol>
        <symbol id="icon-android" viewBox="0 0 512 512">
            <path
                d="M48 59.49v393a4.33 4.33 0 007.37 3.07L260 256 55.37 56.42A4.33 4.33 0 0048 59.49zM345.8 174L89.22 32.64l-.16-.09c-4.42-2.4-8.62 3.58-5 7.06l201.13 192.32zM84.08 472.39c-3.64 3.48.56 9.46 5 7.06l.16-.09L345.8 338l-60.61-57.95zM449.38 231l-71.65-39.46L310.36 256l67.37 64.43L449.38 281c19.49-10.77 19.49-39.23 0-50z" />
        </symbol>

        <symbol id="icon-apple" viewBox="0 0 512 512">
            <path
                d="M349.13 136.86c-40.32 0-57.36 19.24-85.44 19.24-28.79 0-50.75-19.1-85.69-19.1-34.2 0-70.67 20.88-93.83 56.45-32.52 50.16-27 144.63 25.67 225.11 18.84 28.81 44 61.12 77 61.47h.6c28.68 0 37.2-18.78 76.67-19h.6c38.88 0 46.68 18.89 75.24 18.89h.6c33-.35 59.51-36.15 78.35-64.85 13.56-20.64 18.6-31 29-54.35-76.19-28.92-88.43-136.93-13.08-178.34-23-28.8-55.32-45.48-85.79-45.48z" />
            <path
                d="M340.25 32c-24 1.63-52 16.91-68.4 36.86-14.88 18.08-27.12 44.9-22.32 70.91h1.92c25.56 0 51.72-15.39 67-35.11 14.72-18.77 25.88-45.37 21.8-72.66z" />
        </symbol>

        <symbol id="icon-info" viewBox="0 0 512 512">
            <path
                d="M248 64C146.39 64 64 146.39 64 248s82.39 184 184 184 184-82.39 184-184S349.61 64 248 64z"
                fill="none" stroke="currentColor" stroke-miterlimit="10" stroke-width="32" />
            <path fill="none" stroke="currentColor" stroke-linecap="round" stroke-linejoin="round"
                stroke-width="32" d="M220 220h32v116" />
            <path fill="none" stroke="currentColor" stroke-linecap="round" stroke-miterlimit="10"
                stroke-width="32" d="M208 340h88" />
            <path d="M248 130a26 26 0 1026 26 26 26 0 00-26-26z" />
        </symbol>

        <symbol id="icon-phone" viewBox="0 0 512 512">
            <rect x="128" y="16" width="256" height="480" rx="48" ry="48" stroke="currentColor"
                stroke-linecap="round" stroke-linejoin="round" stroke-width="32" />
            <path d="M176 16h24a8 8 0 018 8h0a16 16 0 0016 16h64a16 16 0 0016-16h0a8 8 0 018-8h24"
                stroke="currentColor" stroke-linecap="round" stroke-linejoin="round"
                stroke-width="32" />
        </symbol>


        <symbol id="icon-report" viewBox="0 0 16 16">
            <path
                d="M14.5 2h-4.5c0-1.105-0.895-2-2-2s-2 0.895-2 2h-4.5c-0.276 0-0.5 0.224-0.5 0.5v13c0 0.276 0.224 0.5 0.5 0.5h13c0.276 0 0.5-0.224 0.5-0.5v-13c0-0.276-0.224-0.5-0.5-0.5zM8 1c0.552 0 1 0.448 1 1s-0.448 1-1 1c-0.552 0-1-0.448-1-1s0.448-1 1-1zM14 15h-12v-12h2v1.5c0 0.276 0.224 0.5 0.5 0.5h7c0.276 0 0.5-0.224 0.5-0.5v-1.5h2v12z"></path>
            <path d="M7 13.414l-3.207-3.707 0.914-0.914 2.293 1.793 4.293-3.793 0.914 0.914z"></path>
        </symbol>


        <symbol id="icon-chart" viewBox="0 0 24 24">
            <path
                d="M20.289 15.501c-0.968 2.289-2.771 3.968-4.906 4.835s-4.599 0.917-6.888-0.051-3.968-2.771-4.835-4.906-0.918-4.6 0.050-6.889c0.936-2.214 2.652-3.856 4.689-4.743 0.506-0.221 0.738-0.81 0.518-1.316s-0.81-0.738-1.316-0.518c-2.489 1.084-4.589 3.094-5.733 5.798-1.183 2.798-1.119 5.812-0.062 8.419s3.112 4.814 5.909 5.997 5.812 1.119 8.419 0.062 4.814-3.112 5.997-5.909c0.215-0.509-0.023-1.095-0.532-1.311s-1.095 0.023-1.311 0.532zM20.945 11h-7.945v-7.945c2.086 0.23 3.956 1.173 5.364 2.581s2.351 3.278 2.581 5.364zM23 12c0-3.037-1.232-5.789-3.222-7.778s-4.741-3.222-7.778-3.222c-0.552 0-1 0.448-1 1v10c0 0.552 0.448 1 1 1h10c0.552 0 1-0.448 1-1z"></path>
        </symbol>
        <symbol id="icon-grid" viewBox="0 0 512 512">
            <rect x="48" y="48" width="176" height="176" rx="20" ry="20" stroke="currentColor"
                stroke-linecap="round" stroke-linejoin="round" stroke-width="32" />
            <rect x="288" y="48" width="176" height="176" rx="20" ry="20" stroke="currentColor"
                stroke-linecap="round" stroke-linejoin="round" stroke-width="32" />
            <rect x="48" y="288" width="176" height="176" rx="20" ry="20" stroke="currentColor"
                stroke-linecap="round" stroke-linejoin="round" stroke-width="32" />
            <rect x="288" y="288" width="176" height="176" rx="20" ry="20" stroke="currentColor"
                stroke-linecap="round" stroke-linejoin="round" stroke-width="32" />
        </symbol>
        <symbol id="icon-calendar" viewBox="0 0 512 512">
            <rect fill="none" stroke="currentColor" stroke-linejoin="round" stroke-width="32" x="48"
                y="80" width="416" height="384" rx="48" />
            <circle cx="296" cy="232" r="24" />
            <circle cx="376" cy="232" r="24" />
            <circle cx="296" cy="312" r="24" />
            <circle cx="376" cy="312" r="24" />
            <circle cx="136" cy="312" r="24" />
            <circle cx="216" cy="312" r="24" />
            <circle cx="136" cy="392" r="24" />
            <circle cx="216" cy="392" r="24" />
            <circle cx="296" cy="392" r="24" />
            <path fill="none" stroke="currentColor" stroke-linejoin="round" stroke-width="32"
                stroke-linecap="round" d="M128 48v32M384 48v32" />
            <path fill="none" stroke="currentColor" stroke-linejoin="round" stroke-width="32"
                d="M464 160H48" />
        </symbol>
        <symbol id="icon-stopwatch" viewBox="0 0 24 24">
            <path
                d="M12 20.016q2.906 0 4.945-2.063t2.039-4.969-2.039-4.945-4.945-2.039-4.945 2.039-2.039 4.945 2.039 4.969 4.945 2.063zM19.031 7.406q0.797 1.031 1.383 2.648t0.586 2.93q0 3.703-2.625 6.352t-6.375 2.648-6.375-2.648-2.625-6.352 2.625-6.352 6.375-2.648q1.266 0 2.93 0.609t2.695 1.406l1.406-1.453q0.75 0.609 1.406 1.406zM11.016 14.016v-6h1.969v6h-1.969zM15 0.984v2.016h-6v-2.016h6z"></path>
        </symbol>
        <symbol id="icon-dollar" viewBox="0 0 24 24">
            <path
                d="M11 11h-1.5c-0.691 0-1.314-0.279-1.768-0.732s-0.732-1.077-0.732-1.768 0.279-1.314 0.732-1.768 1.077-0.732 1.768-0.732h1.5zM13 13h1.5c0.691 0 1.314 0.279 1.768 0.732s0.732 1.077 0.732 1.768-0.279 1.314-0.732 1.768-1.077 0.732-1.768 0.732h-1.5zM17 4h-4v-3c0-0.552-0.448-1-1-1s-1 0.448-1 1v3h-1.5c-1.242 0-2.369 0.505-3.182 1.318s-1.318 1.94-1.318 3.182 0.505 2.369 1.318 3.182 1.94 1.318 3.182 1.318h1.5v5h-5c-0.552 0-1 0.448-1 1s0.448 1 1 1h5v3c0 0.552 0.448 1 1 1s1-0.448 1-1v-3h1.5c1.242 0 2.369-0.505 3.182-1.318s1.318-1.94 1.318-3.182-0.505-2.369-1.318-3.182-1.94-1.318-3.182-1.318h-1.5v-5h4c0.552 0 1-0.448 1-1s-0.448-1-1-1z"></path>
        </symbol>
        <symbol id="icon-grow" viewBox="0 0 24 24">
            <path
                d="M15.984 6h6v6l-2.297-2.297-6.281 6.281-3.984-3.984-6 6-1.406-1.406 7.406-7.406 3.984 3.984 4.875-4.875z"></path>
        </symbol>
        <symbol id="icon-previous" viewBox="0 0 24 24">
            <path
                d="M15.707 17.293l-5.293-5.293 5.293-5.293c0.391-0.391 0.391-1.024 0-1.414s-1.024-0.391-1.414 0l-6 6c-0.391 0.391-0.391 1.024 0 1.414l6 6c0.391 0.391 1.024 0.391 1.414 0s0.391-1.024 0-1.414z"></path>
        </symbol>
        <symbol id="icon-next" viewBox="0 0 24 24">
            <path
                d="M9.707 18.707l6-6c0.391-0.391 0.391-1.024 0-1.414l-6-6c-0.391-0.391-1.024-0.391-1.414 0s-0.391 1.024 0 1.414l5.293 5.293-5.293 5.293c-0.391 0.391-0.391 1.024 0 1.414s1.024 0.391 1.414 0z"></path>
        </symbol>
        <symbol id='MenuIcon' viewBox="0 0 512 512">
            <path fill="none" stroke="currentColor" stroke-linecap="round" stroke-miterlimit="10"
                stroke-width="48" d="M88 152h336M88 256h336M88 360h336" />
        </symbol>
        <symbol id='CloseMenu' viewBox="0 0 24 24">
            <path fill-rule="evenodd"
                d="M4.293 4.293a1 1 0 011.414 0L10 8.586l4.293-4.293a1 1 0 111.414 1.414L11.414 10l4.293 4.293a1 1 0 01-1.414 1.414L10 11.414l-4.293 4.293a1 1 0 01-1.414-1.414L8.586 10 4.293 5.707a1 1 0 010-1.414z"
                clip-rule="evenodd" />
        </symbol>
    </defs>
</svg>