<svg width="19" height="19" viewBox="0 0 19 19" fill="none" xmlns="http://www.w3.org/2000/svg">
<path d="M17.5156 3.5625H14.25V1.48438H13.0625V3.5625H5.9375V1.48438H4.75V3.5625H1.48438C1.24825 3.56277 1.02188 3.6567 0.854912 3.82366C0.687947 3.99063 0.594025 4.217 0.59375 4.45312V16.9219C0.594025 17.158 0.687947 17.3844 0.854912 17.5513C1.02188 17.7183 1.24825 17.8122 1.48438 17.8125H17.5156C17.7517 17.8122 17.9781 17.7183 18.1451 17.5513C18.3121 17.3844 18.406 17.158 18.4062 16.9219V4.45312C18.406 4.217 18.3121 3.99063 18.1451 3.82366C17.9781 3.6567 17.7517 3.56277 17.5156 3.5625ZM17.2188 16.625H1.78125V4.75H4.75V6.23438H5.9375V4.75H13.0625V6.23438H14.25V4.75H17.2188V16.625Z" fill="white"/>
<path d="M4.15625 8.3125H5.34375V9.5H4.15625V8.3125ZM7.42188 8.3125H8.60938V9.5H7.42188V8.3125ZM10.3906 8.3125H11.5781V9.5H10.3906V8.3125ZM13.6562 8.3125H14.8438V9.5H13.6562V8.3125ZM4.15625 10.9844H5.34375V12.1719H4.15625V10.9844ZM7.42188 10.9844H8.60938V12.1719H7.42188V10.9844ZM10.3906 10.9844H11.5781V12.1719H10.3906V10.9844ZM13.6562 10.9844H14.8438V12.1719H13.6562V10.9844ZM4.15625 13.6562H5.34375V14.8438H4.15625V13.6562ZM7.42188 13.6562H8.60938V14.8438H7.42188V13.6562ZM10.3906 13.6562H11.5781V14.8438H10.3906V13.6562ZM13.6562 13.6562H14.8438V14.8438H13.6562V13.6562Z" fill="white"/>
</svg>
