<svg aria-hidden="true" style="position: absolute; width: 0; height: 0; overflow: hidden;"
    version="1.1" xmlns="http://www.w3.org/2000/svg" xmlns:xlink="http://www.w3.org/1999/xlink">
    <defs>
        <symbol id="icon-dashboard" viewBox="0 0 24 24">
            <path
                d="M4 13H10C10.2652 13 10.5196 12.8946 10.7071 12.7071C10.8946 12.5196 11 12.2652 11 12V4C11 3.73478 10.8946 3.48043 10.7071 3.29289C10.5196 3.10536 10.2652 3 10 3H4C3.73478 3 3.48043 3.10536 3.29289 3.29289C3.10536 3.48043 3 3.73478 3 4V12C3 12.2652 3.10536 12.5196 3.29289 12.7071C3.48043 12.8946 3.73478 13 4 13ZM3 20C3 20.2652 3.10536 20.5196 3.29289 20.7071C3.48043 20.8946 3.73478 21 4 21H10C10.2652 21 10.5196 20.8946 10.7071 20.7071C10.8946 20.5196 11 20.2652 11 20V16C11 15.7348 10.8946 15.4804 10.7071 15.2929C10.5196 15.1054 10.2652 15 10 15H4C3.73478 15 3.48043 15.1054 3.29289 15.2929C3.10536 15.4804 3 15.7348 3 16V20ZM13 20C13 20.2652 13.1054 20.5196 13.2929 20.7071C13.4804 20.8946 13.7348 21 14 21H20C20.2652 21 20.5196 20.8946 20.7071 20.7071C20.8946 20.5196 21 20.2652 21 20V13C21 12.7348 20.8946 12.4804 20.7071 12.2929C20.5196 12.1054 20.2652 12 20 12H14C13.7348 12 13.4804 12.1054 13.2929 12.2929C13.1054 12.4804 13 12.7348 13 13V20ZM14 10H20C20.2652 10 20.5196 9.89464 20.7071 9.70711C20.8946 9.51957 21 9.26522 21 9V4C21 3.73478 20.8946 3.48043 20.7071 3.29289C20.5196 3.10536 20.2652 3 20 3H14C13.7348 3 13.4804 3.10536 13.2929 3.29289C13.1054 3.48043 13 3.73478 13 4V9C13 9.26522 13.1054 9.51957 13.2929 9.70711C13.4804 9.89464 13.7348 10 14 10Z" />
        </symbol>
        <symbol id="icon-user" viewBox="0 0 23 23">
            <path
                d="M19.2828 17.1512C18.8591 16.1476 18.2442 15.2359 17.4724 14.4671C16.703 13.696 15.7915 13.0813 14.7883 12.6567C14.7794 12.6522 14.7704 12.65 14.7614 12.6455C16.1607 11.6348 17.0704 9.98838 17.0704 8.13086C17.0704 5.05371 14.5772 2.56055 11.5001 2.56055C8.42291 2.56055 5.92974 5.05371 5.92974 8.13086C5.92974 9.98838 6.83941 11.6348 8.23873 12.6478C8.22974 12.6522 8.22076 12.6545 8.21177 12.659C7.20552 13.0835 6.3026 13.6922 5.52769 14.4693C4.75663 15.2388 4.14186 16.1502 3.71734 17.1534C3.30029 18.1355 3.07537 19.1885 3.05474 20.2553C3.05414 20.2792 3.05835 20.3031 3.06711 20.3254C3.07587 20.3477 3.08901 20.3681 3.10576 20.3852C3.1225 20.4024 3.14252 20.416 3.16461 20.4254C3.18671 20.4347 3.21045 20.4395 3.23443 20.4395H4.58209C4.68092 20.4395 4.75953 20.3608 4.76177 20.2643C4.8067 18.5303 5.50299 16.9063 6.73384 15.6755C8.00738 14.402 9.69869 13.7012 11.5001 13.7012C13.3014 13.7012 14.9927 14.402 16.2663 15.6755C17.4971 16.9063 18.1934 18.5303 18.2383 20.2643C18.2406 20.3631 18.3192 20.4395 18.418 20.4395H19.7657C19.7897 20.4395 19.8134 20.4347 19.8355 20.4254C19.8576 20.416 19.8776 20.4024 19.8944 20.3852C19.9111 20.3681 19.9242 20.3477 19.933 20.3254C19.9418 20.3031 19.946 20.2792 19.9454 20.2553C19.9229 19.1816 19.7005 18.1372 19.2828 17.1512ZM11.5001 11.9941C10.4691 11.9941 9.49879 11.5921 8.76881 10.8621C8.03883 10.1321 7.63677 9.16182 7.63677 8.13086C7.63677 7.0999 8.03883 6.12959 8.76881 5.39961C9.49879 4.66963 10.4691 4.26758 11.5001 4.26758C12.531 4.26758 13.5013 4.66963 14.2313 5.39961C14.9613 6.12959 15.3633 7.0999 15.3633 8.13086C15.3633 9.16182 14.9613 10.1321 14.2313 10.8621C13.5013 11.5921 12.531 11.9941 11.5001 11.9941Z" />
        </symbol>
        <symbol id="icon-new-email" viewBox="0 0 23 23">
            <path
                d="M18.402 0.866482H1.56647C0.409032 0.866482 -0.527442 1.81348 -0.527442 2.97092L-0.537964 15.5975C-0.537964 16.755 0.409032 17.702 1.56647 17.702H18.402C19.5594 17.702 20.5064 16.755 20.5064 15.5975V2.97092C20.5064 1.81348 19.5594 0.866482 18.402 0.866482ZM18.402 5.07535L9.98422 10.3364L1.56647 5.07535V2.97092L9.98422 8.23201L18.402 2.97092V5.07535Z"
                fill="white" />
        </symbol>
        <symbol id="icon-new-salon" viewBox="0 0 23 23">
            <path
                d="M16.9361 2.90439H13.1517C12.4679 2.90659 12.4935 3.93729 13.1517 3.93124H16.9361V4.45815H13.1517C12.4717 4.45209 12.4967 5.48224 13.1517 5.485H16.9361V6.02347H13.1517C12.4717 6.02347 12.4967 7.05307 13.1517 7.05032H16.9361V7.56347H13.1517C12.4858 7.56842 12.4967 8.59912 13.1517 8.60243H16.9361V9.11668H13.1517C12.4858 9.11448 12.4831 10.1435 13.1517 10.1435H16.9361V10.6567H13.1517C12.4858 10.6589 12.4831 11.689 13.1517 11.6841H16.9361V12.2099H13.1517C12.4858 12.2038 12.4831 13.2329 13.1517 13.2367H16.9361V13.7488H13.1517C12.4858 13.7482 12.4967 14.7795 13.1517 14.7762H16.9361V24.7743C16.9383 26.2978 19.2266 26.2703 19.2331 24.7743V1.37706C19.2266 0.681115 18.6615 -0.198725 17.7316 -0.201478H13.1517C12.4679 -0.200928 12.4935 0.829773 13.1517 0.825369L16.9361 0.838032V1.35008H13.1517C12.469 1.34678 12.4945 2.37693 13.1517 2.37748H16.9361V2.90439ZM12.8914 20.63C12.8893 18.8516 11.0665 16.9389 8.88869 18.1777V11.3757L7.48021 0.157505C7.45081 -0.139262 7.202 -0.209187 7.03485 -0.214142C6.86227 -0.209187 6.51654 -0.139262 6.47898 0.157505L5.07758 11.3757V18.1777C2.8998 16.9389 1.1358 18.8637 1.13525 20.6163C1.1358 22.1755 2.32269 23.4562 3.9288 23.4523C5.54689 23.4562 6.71091 22.0208 6.71091 20.6163V13.5506H7.25535V20.6163C7.25535 22.1887 8.45967 23.3527 9.79791 23.4265C9.77559 24.2887 10.0538 25.5187 10.5776 26.0065C11.1917 26.5791 11.9229 25.8469 11.6229 25.2506C11.3332 24.6956 11.049 24.3669 11.2799 23.155C12.2446 22.7035 12.8893 21.7532 12.8914 20.63ZM3.99087 22.0291C3.62374 22.0291 3.27165 21.8816 3.01205 21.6191C2.75246 21.3565 2.60662 21.0005 2.60662 20.6292C2.60662 20.2579 2.75246 19.9019 3.01205 19.6393C3.27165 19.3768 3.62374 19.2293 3.99087 19.2293C4.74547 19.2337 5.36014 19.8598 5.36559 20.63C5.36404 20.9991 5.21897 21.3527 4.96175 21.6145C4.70452 21.8762 4.35577 22.0252 3.99087 22.0291ZM8.6573 20.63C8.65857 20.2606 8.80356 19.9066 9.06092 19.6445C9.31828 19.3824 9.66732 19.2332 10.0326 19.2293C10.3979 19.2327 10.7473 19.3816 11.0046 19.6439C11.262 19.9062 11.4067 20.2605 11.4073 20.63C11.4067 20.9994 11.262 21.3536 11.0045 21.6156C10.7471 21.8776 10.3978 22.0262 10.0326 22.0291C9.66743 22.0257 9.3183 21.877 9.06087 21.6151C8.80343 21.3532 8.65843 20.9993 8.6573 20.63Z"
                fill="white" />
        </symbol>
        <symbol id="icon-new-phone" viewBox="0 0 23 23">
            <path
                d="M12.5559 10.906L12.1009 11.359C12.1009 11.359 11.0179 12.435 8.06288 9.497C5.10788 6.559 6.19088 5.483 6.19088 5.483L6.47688 5.197C7.18388 4.495 7.25088 3.367 6.63388 2.543L5.37388 0.86C4.60988 -0.16 3.13488 -0.294999 2.25988 0.575001L0.68988 2.135C0.25688 2.567 -0.0331206 3.125 0.00187944 3.745C0.0918794 5.332 0.809879 8.745 4.81388 12.727C9.06088 16.949 13.0459 17.117 14.6749 16.965C15.1909 16.917 15.6389 16.655 15.9999 16.295L17.4199 14.883C18.3799 13.93 18.1099 12.295 16.8819 11.628L14.9719 10.589C14.1659 10.151 13.1859 10.28 12.5559 10.906Z"
                fill="white" />
        </symbol>
        <symbol id="icon-new-location" viewBox="0 0 23 23">
            <path
                d="M5.49984 6.66667C5.03018 6.66667 4.57976 6.49107 4.24767 6.17851C3.91557 5.86595 3.729 5.44203 3.729 5C3.729 4.55797 3.91557 4.13405 4.24767 3.82149C4.57976 3.50893 5.03018 3.33333 5.49984 3.33333C5.96949 3.33333 6.41991 3.50893 6.75201 3.82149C7.0841 4.13405 7.27067 4.55797 7.27067 5C7.27067 5.21887 7.22487 5.4356 7.13587 5.6378C7.04688 5.84001 6.91644 6.02375 6.75201 6.17851C6.58757 6.33327 6.39235 6.45604 6.17751 6.5398C5.96266 6.62356 5.73239 6.66667 5.49984 6.66667ZM5.49984 0.333332C4.18481 0.333332 2.92363 0.824997 1.99377 1.70017C1.0639 2.57534 0.541504 3.76232 0.541504 5C0.541504 8.5 5.49984 13.6667 5.49984 13.6667C5.49984 13.6667 10.4582 8.5 10.4582 5C10.4582 3.76232 9.93578 2.57534 9.00591 1.70017C8.07604 0.824997 6.81487 0.333332 5.49984 0.333332Z"
                fill="white" />
        </symbol>
        <symbol id="icon-users" viewBox="0 0 24 24">
            <path stroke-width="0.5"
                d="M18 21v-2c0-1.38-0.561-2.632-1.464-3.536s-2.156-1.464-3.536-1.464h-8c-1.38 0-2.632 0.561-3.536 1.464s-1.464 2.156-1.464 3.536v2c0 0.552 0.448 1 1 1s1-0.448 1-1v-2c0-0.829 0.335-1.577 0.879-2.121s1.292-0.879 2.121-0.879h8c0.829 0 1.577 0.335 2.121 0.879s0.879 1.292 0.879 2.121v2c0 0.552 0.448 1 1 1s1-0.448 1-1zM14 7c0-1.38-0.561-2.632-1.464-3.536s-2.156-1.464-3.536-1.464-2.632 0.561-3.536 1.464-1.464 2.156-1.464 3.536 0.561 2.632 1.464 3.536 2.156 1.464 3.536 1.464 2.632-0.561 3.536-1.464 1.464-2.156 1.464-3.536zM12 7c0 0.829-0.335 1.577-0.879 2.121s-1.292 0.879-2.121 0.879-1.577-0.335-2.121-0.879-0.879-1.292-0.879-2.121 0.335-1.577 0.879-2.121 1.292-0.879 2.121-0.879 1.577 0.335 2.121 0.879 0.879 1.292 0.879 2.121zM24 21v-2c-0.001-1.245-0.457-2.385-1.215-3.261-0.652-0.753-1.528-1.311-2.529-1.576-0.534-0.141-1.081 0.177-1.222 0.711s0.177 1.081 0.711 1.222c0.607 0.161 1.136 0.498 1.528 0.952 0.454 0.526 0.726 1.206 0.727 1.952v2c0 0.552 0.448 1 1 1s1-0.448 1-1zM15.752 4.099c0.803 0.206 1.445 0.715 1.837 1.377s0.531 1.47 0.325 2.273c-0.176 0.688-0.575 1.256-1.105 1.652-0.314 0.235-0.675 0.409-1.063 0.511-0.534 0.14-0.854 0.687-0.713 1.221s0.687 0.854 1.221 0.713c0.637-0.167 1.232-0.455 1.752-0.844 0.884-0.66 1.552-1.613 1.845-2.758 0.342-1.337 0.11-2.689-0.542-3.788s-1.725-1.953-3.062-2.296c-0.535-0.137-1.080 0.186-1.217 0.721s0.186 1.080 0.721 1.217z"></path>
        </symbol>
        <symbol id="icon-plus" viewBox="0 0 24 24">
            <path
                d="M5 13h6v6c0 0.552 0.448 1 1 1s1-0.448 1-1v-6h6c0.552 0 1-0.448 1-1s-0.448-1-1-1h-6v-6c0-0.552-0.448-1-1-1s-1 0.448-1 1v6h-6c-0.552 0-1 0.448-1 1s0.448 1 1 1z"></path>
        </symbol>
        <symbol id="icon-minus" viewBox="0 0 24 24">
            <path
                d="M5 13h14c0.552 0 1-0.448 1-1s-0.448-1-1-1h-14c-0.552 0-1 0.448-1 1s0.448 1 1 1z"></path>
        </symbol>
        <symbol id="icon-airplane" viewBox="0 0 32 32">
            <path
                d="M24 19.999l-5.713-5.713 13.713-10.286-4-4-17.141 6.858-5.397-5.397c-1.556-1.556-3.728-1.928-4.828-0.828s-0.727 3.273 0.828 4.828l5.396 5.396-6.858 17.143 4 4 10.287-13.715 5.713 5.713v7.999h4l2-6 6-2v-4l-7.999 0z"></path>
        </symbol>
        <symbol id="icon-truck" viewBox="0 0 32 32">
            <path
                d="M32 18l-4-8h-6v-4c0-1.1-0.9-2-2-2h-18c-1.1 0-2 0.9-2 2v16l2 2h2.536c-0.341 0.588-0.536 1.271-0.536 2 0 2.209 1.791 4 4 4s4-1.791 4-4c0-0.729-0.196-1.412-0.536-2h11.073c-0.341 0.588-0.537 1.271-0.537 2 0 2.209 1.791 4 4 4s4-1.791 4-4c0-0.729-0.196-1.412-0.537-2h2.537v-6zM22 18v-6h4.146l3 6h-7.146z"></path>
        </symbol>
        <symbol id="icon-clock" viewBox="0 0 32 32">
            <path
                d="M16 0c-8.837 0-16 7.163-16 16s7.163 16 16 16 16-7.163 16-16-7.163-16-16-16zM20.586 23.414l-6.586-6.586v-8.828h4v7.172l5.414 5.414-2.829 2.829z"></path>
        </symbol>
        <symbol id="icon-briefcase" viewBox="0 0 32 32">
            <path
                d="M30 8h-8v-2c0-1.1-0.9-2-2-2h-8c-1.1 0-2 0.9-2 2v2h-8c-1.1 0-2 0.9-2 2v18c0 1.1 0.9 2 2 2h28c1.1 0 2-0.9 2-2v-18c0-1.1-0.9-2-2-2zM12 6.004c0.001-0.001 0.002-0.003 0.004-0.004h7.993c0.001 0.001 0.003 0.002 0.004 0.004v1.996h-8v-1.996zM30 16h-4v3c0 0.55-0.45 1-1 1h-2c-0.55 0-1-0.45-1-1v-3h-12v3c0 0.55-0.45 1-1 1h-2c-0.55 0-1-0.45-1-1v-3h-4v-2h28v2z"></path>
        </symbol>
        <symbol id="icon-share" viewBox="0 0 32 32">
            <path
                d="M27 22c-1.411 0-2.685 0.586-3.594 1.526l-13.469-6.734c0.041-0.258 0.063-0.522 0.063-0.791s-0.022-0.534-0.063-0.791l13.469-6.734c0.909 0.94 2.183 1.526 3.594 1.526 2.761 0 5-2.239 5-5s-2.239-5-5-5-5 2.239-5 5c0 0.269 0.022 0.534 0.063 0.791l-13.469 6.734c-0.909-0.94-2.183-1.526-3.594-1.526-2.761 0-5 2.239-5 5s2.239 5 5 5c1.411 0 2.685-0.586 3.594-1.526l13.469 6.734c-0.041 0.258-0.063 0.522-0.063 0.791 0 2.761 2.239 5 5 5s5-2.239 5-5c0-2.761-2.239-5-5-5z"></path>
        </symbol>
        <symbol id="icon-plus_outline" viewBox="0 0 24 24">
            <path
                d="M12 20.016q3.281 0 5.648-2.367t2.367-5.648-2.367-5.648-5.648-2.367-5.648 2.367-2.367 5.648 2.367 5.648 5.648 2.367zM12 2.016q4.125 0 7.055 2.93t2.93 7.055-2.93 7.055-7.055 2.93-7.055-2.93-2.93-7.055 2.93-7.055 7.055-2.93zM12.984 6.984v4.031h4.031v1.969h-4.031v4.031h-1.969v-4.031h-4.031v-1.969h4.031v-4.031h1.969z"></path>
        </symbol>
        <symbol id="icon-reward-coins" viewBox="0 0 104 97">
            <path opacity="0.2"
                d="M65 48.5C65 68.582 54.8153 84.875 42.25 84.875C29.6847 84.875 19.5 68.582 19.5 48.5C19.5 28.418 29.6847 12.125 42.25 12.125C54.8153 12.125 65 28.418 65 48.5Z"
                fill="#FFD600"></path>
            <path
                d="M80.6447 21.2529C75.7412 13.4133 69.03 9.09375 61.75 9.09375H42.25C34.97 9.09375 28.2588 13.4133 23.3553 21.2529C18.7728 28.5771 16.25 38.2695 16.25 48.5C16.25 58.7305 18.7728 68.4229 23.3553 75.7471C28.2588 83.5867 34.97 87.9062 42.25 87.9062H61.75C69.03 87.9062 75.7412 83.5867 80.6447 75.7471C85.2272 68.4229 87.75 58.7305 87.75 48.5C87.75 38.2695 85.2272 28.5771 80.6447 21.2529ZM81.1647 45.4688H68.1647C67.9106 39.2485 66.5828 33.1072 64.2322 27.2812H76.6594C79.1456 32.351 80.7869 38.6484 81.1647 45.4688ZM72.7959 21.2188H61.1244C59.7673 19.022 58.1304 16.9864 56.2494 15.1562H61.75C65.8125 15.1562 69.6313 17.4297 72.7959 21.2188ZM22.75 48.5C22.75 30.4262 31.6875 15.1562 42.25 15.1562C52.8125 15.1562 61.75 30.4262 61.75 48.5C61.75 66.5738 52.8125 81.8438 42.25 81.8438C31.6875 81.8438 22.75 66.5738 22.75 48.5ZM61.75 81.8438H56.2616C58.1426 80.0136 59.7795 77.978 61.1366 75.7812H72.8081C69.6313 79.5703 65.8125 81.8438 61.75 81.8438ZM76.6594 69.7188H64.2362C66.5868 63.8928 67.9147 57.7515 68.1688 51.5312H81.1688C80.7869 58.3516 79.1456 64.649 76.6594 69.7188Z"
                fill="#FFD600"
            >
            </path>
        </symbol>
        <symbol id="sideBar-reward-coins" viewBox="0 0 176 208">
            <path opacity="0.2"
                d="M120 104C120 157 94.93 200 64 200C33.07 200 8 157 8 104C8 51 33.07 8 64 8C94.93 8 120 51 120 104Z"
                fill="#fff"></path>
            <path
                d="M158.51 32.09C146.44 11.4 129.92 0 112 0H64C46.08 0 29.56 11.4 17.49 32.09C6.21 51.42 0 77 0 104C0 131 6.21 156.58 17.49 175.91C29.56 196.6 46.08 208 64 208H112C129.92 208 146.44 196.6 158.51 175.91C169.79 156.58 176 131 176 104C176 77 169.79 51.42 158.51 32.09ZM159.79 96H127.79C127.165 79.5837 123.896 63.3756 118.11 48H148.7C154.82 61.38 158.86 78 159.79 96ZM139.19 32H110.46C107.12 26.2025 103.09 20.8301 98.46 16H112C122 16 131.4 22 139.19 32ZM16 104C16 56.3 38 16 64 16C90 16 112 56.3 112 104C112 151.7 90 192 64 192C38 192 16 151.7 16 104ZM112 192H98.49C103.12 187.17 107.15 181.798 110.49 176H139.22C131.4 186 122 192 112 192ZM148.7 160H118.12C123.906 144.624 127.175 128.416 127.8 112H159.8C158.86 130 154.82 146.62 148.7 160Z"
                fill="#fff"
            >
            </path>
        </symbol>
        <symbol id="icon-location" viewBox="0 0 32 32">
            <path
                d="M16 0c-5.523 0-10 4.477-10 10 0 10 10 22 10 22s10-12 10-22c0-5.523-4.477-10-10-10zM16 16c-3.314 0-6-2.686-6-6s2.686-6 6-6 6 2.686 6 6-2.686 6-6 6z"></path>
        </symbol>
        <symbol id="icon-edit" viewBox="0 0 24 24">
            <path
                d="M12 21h9c0.552 0 1-0.448 1-1s-0.448-1-1-1h-9c-0.552 0-1 0.448-1 1s0.448 1 1 1zM15.793 2.793l-12.5 12.5c-0.122 0.121-0.217 0.28-0.263 0.465l-1 4c-0.039 0.15-0.042 0.318 0 0.485 0.134 0.536 0.677 0.862 1.213 0.728l4-1c0.167-0.041 0.33-0.129 0.465-0.263l12.5-12.5c0.609-0.609 0.914-1.41 0.914-2.207s-0.305-1.598-0.914-2.207-1.411-0.915-2.208-0.915-1.598 0.305-2.207 0.914zM17.207 4.207c0.219-0.219 0.504-0.328 0.793-0.328s0.574 0.109 0.793 0.328 0.328 0.504 0.328 0.793-0.109 0.574-0.328 0.793l-12.304 12.304-2.115 0.529 0.529-2.115z"></path>
        </symbol>
        <symbol id="icon-circle-up" viewBox="0 0 32 32">
            <path
                d="M0 16c0 8.837 7.163 16 16 16s16-7.163 16-16-7.163-16-16-16-16 7.163-16 16zM29 16c0 7.18-5.82 13-13 13s-13-5.82-13-13 5.82-13 13-13 13 5.82 13 13z"></path>
            <path d="M22.086 20.914l2.829-2.829-8.914-8.914-8.914 8.914 2.828 2.828 6.086-6.086z"></path>
        </symbol>
        <symbol id="icon-circle-down" viewBox="0 0 32 32">
            <path
                d="M32 16c0-8.837-7.163-16-16-16s-16 7.163-16 16 7.163 16 16 16 16-7.163 16-16zM3 16c0-7.18 5.82-13 13-13s13 5.82 13 13-5.82 13-13 13-13-5.82-13-13z"></path>
            <path d="M9.914 11.086l-2.829 2.829 8.914 8.914 8.914-8.914-2.828-2.828-6.086 6.086z"></path>
        </symbol>
        <symbol id="icon-down" viewBox="0 0 32 32">
            <path d="M9.914 11.086l-2.829 2.829 8.914 8.914 8.914-8.914-2.828-2.828-6.086 6.086z" />
        </symbol>
        <symbol id="icon-sphere" viewBox="0 0 32 32">
            <path
                d="M15 2c-8.284 0-15 6.716-15 15s6.716 15 15 15c8.284 0 15-6.716 15-15s-6.716-15-15-15zM23.487 22c0.268-1.264 0.437-2.606 0.492-4h3.983c-0.104 1.381-0.426 2.722-0.959 4h-3.516zM6.513 12c-0.268 1.264-0.437 2.606-0.492 4h-3.983c0.104-1.381 0.426-2.722 0.959-4h3.516zM21.439 12c0.3 1.28 0.481 2.62 0.54 4h-5.979v-4h5.439zM16 10v-5.854c0.456 0.133 0.908 0.355 1.351 0.668 0.831 0.586 1.625 1.488 2.298 2.609 0.465 0.775 0.867 1.638 1.203 2.578h-4.852zM10.351 7.422c0.673-1.121 1.467-2.023 2.298-2.609 0.443-0.313 0.895-0.535 1.351-0.668v5.854h-4.852c0.336-0.94 0.738-1.803 1.203-2.578zM14 12v4h-5.979c0.059-1.38 0.24-2.72 0.54-4h5.439zM2.997 22c-0.533-1.278-0.854-2.619-0.959-4h3.983c0.055 1.394 0.224 2.736 0.492 4h-3.516zM8.021 18h5.979v4h-5.439c-0.3-1.28-0.481-2.62-0.54-4zM14 24v5.854c-0.456-0.133-0.908-0.355-1.351-0.668-0.831-0.586-1.625-1.488-2.298-2.609-0.465-0.775-0.867-1.638-1.203-2.578h4.852zM19.649 26.578c-0.673 1.121-1.467 2.023-2.298 2.609-0.443 0.312-0.895 0.535-1.351 0.668v-5.854h4.852c-0.336 0.94-0.738 1.802-1.203 2.578zM16 22v-4h5.979c-0.059 1.38-0.24 2.72-0.54 4h-5.439zM23.98 16c-0.055-1.394-0.224-2.736-0.492-4h3.516c0.533 1.278 0.855 2.619 0.959 4h-3.983zM25.958 10h-2.997c-0.582-1.836-1.387-3.447-2.354-4.732 1.329 0.636 2.533 1.488 3.585 2.54 0.671 0.671 1.261 1.404 1.766 2.192zM5.808 7.808c1.052-1.052 2.256-1.904 3.585-2.54-0.967 1.285-1.771 2.896-2.354 4.732h-2.997c0.504-0.788 1.094-1.521 1.766-2.192zM4.042 24h2.997c0.583 1.836 1.387 3.447 2.354 4.732-1.329-0.636-2.533-1.488-3.585-2.54-0.671-0.671-1.261-1.404-1.766-2.192zM24.192 26.192c-1.052 1.052-2.256 1.904-3.585 2.54 0.967-1.285 1.771-2.896 2.354-4.732h2.997c-0.504 0.788-1.094 1.521-1.766 2.192z"></path>
        </symbol>
        <symbol id="icon-logout" viewBox="0 0 24 24">
            <path
                d="M3.984 5.016v13.969h8.016v2.016h-8.016q-0.797 0-1.383-0.609t-0.586-1.406v-13.969q0-0.797 0.586-1.406t1.383-0.609h8.016v2.016h-8.016zM17.016 6.984l4.969 5.016-4.969 5.016-1.406-1.453 2.578-2.578h-10.172v-1.969h10.172l-2.578-2.625z"></path>
        </symbol>
        <symbol id="icon-ticket" viewBox="0 0 32 32">
            <path
                d="M18 10l4 4-8 8-4-4zM31.298 9.297l-2.297-2.297-1 1c-0.512 0.512-1.219 0.828-2 0.828-1.562 0-2.829-1.266-2.829-2.828 0-0.781 0.317-1.489 0.829-2.001l1-1-2.297-2.297c-0.936-0.936-2.469-0.936-3.405 0l-18.595 18.595c-0.936 0.936-0.936 2.469 0 3.405l2.297 2.297 0.999-0.999c0.512-0.513 1.22-0.83 2.001-0.83 1.562 0 2.828 1.266 2.828 2.828 0 0.781-0.317 1.489-0.829 2.001l-1 1 2.297 2.297c0.936 0.936 2.469 0.936 3.405 0l18.595-18.595c0.936-0.937 0.936-2.469 0-3.406zM14 26l-8-8 12-12 8 8-12 12z"></path>
        </symbol>
        <symbol id="icon-arrow_right" viewBox="0 0 24 24">
            <path d="M16.031 11.016v-3l3.984 3.984-3.984 3.984v-3h-12.047v-1.969h12.047z"></path>
        </symbol>
        <symbol id="icon-back" viewBox="0 0 24 24">
            <path
                d="M21 11.016v1.969h-14.156l3.563 3.609-1.406 1.406-6-6 6-6 1.406 1.406-3.563 3.609h14.156z"></path>
        </symbol>
        <symbol id="icon-key" viewBox="0 0 24 24">
            <path
                d="M6.984 14.016q0.797 0 1.406-0.609t0.609-1.406-0.609-1.406-1.406-0.609-1.383 0.609-0.586 1.406 0.586 1.406 1.383 0.609zM12.656 9.984h10.359v4.031h-2.016v3.984h-3.984v-3.984h-4.359q-0.609 1.641-2.273 2.813t-3.398 1.172q-2.484 0-4.242-1.758t-1.758-4.242 1.758-4.242 4.242-1.758q1.734 0 3.398 1.172t2.273 2.813z"></path>
        </symbol>
        <symbol id="icon-new-key" viewBox="0 0 24 24">
            <path
                d="M15.2451 15.446H10.6774C10.181 16.8501 9.20417 18.0335 7.9196 18.787C6.63503 19.5406 5.12542 19.8158 3.65758 19.5639C2.18975 19.3121 0.858197 18.5494 -0.101725 17.4108C-1.06165 16.2722 -1.58813 14.8308 -1.58813 13.3415C-1.58813 11.8523 -1.06165 10.4109 -0.101725 9.27227C0.858197 8.13363 2.18975 7.37099 3.65758 7.11915C5.12542 6.86731 6.63503 7.14248 7.9196 7.89603C9.20417 8.64958 10.181 9.83299 10.6774 11.2371H21.5584V15.446H19.454V19.6548H15.2451V15.446ZM4.72292 15.446C5.28105 15.446 5.81632 15.2243 6.21098 14.8296C6.60563 14.4349 6.82735 13.8997 6.82735 13.3415C6.82735 12.7834 6.60563 12.2481 6.21098 11.8535C5.81632 11.4588 5.28105 11.2371 4.72292 11.2371C4.16478 11.2371 3.62951 11.4588 3.23485 11.8535C2.8402 12.2481 2.61848 12.7834 2.61848 13.3415C2.61848 13.8997 2.8402 14.4349 3.23485 14.8296C3.62951 15.2243 4.16478 15.446 4.72292 15.446Z"
                fill="white"></path>
        </symbol>
        <symbol id="icon-cancel" viewBox="0 0 24 24">
            <path
                d="M17.016 15.609l-3.609-3.609 3.609-3.609-1.406-1.406-3.609 3.609-3.609-3.609-1.406 1.406 3.609 3.609-3.609 3.609 1.406 1.406 3.609-3.609 3.609 3.609zM12 2.016q4.125 0 7.055 2.93t2.93 7.055-2.93 7.055-7.055 2.93-7.055-2.93-2.93-7.055 2.93-7.055 7.055-2.93z"></path>
        </symbol>
        <symbol id="icon-close" viewBox="0 0 20 20">
            <path
                d="M10 8.586l-7.071-7.071-1.414 1.414 7.071 7.071-7.071 7.071 1.414 1.414 7.071-7.071 7.071 7.071 1.414-1.414-7.071-7.071 7.071-7.071-1.414-1.414-7.071 7.071z"></path>
        </symbol>
        <symbol id="icon-visibility_off" viewBox="0 0 24 24">
            <path
                d="M11.859 9h0.141q1.219 0 2.109 0.891t0.891 2.109v0.188zM7.547 9.797q-0.563 1.125-0.563 2.203 0 2.063 1.477 3.539t3.539 1.477q1.078 0 2.203-0.563l-1.547-1.547q-0.375 0.094-0.656 0.094-1.219 0-2.109-0.891t-0.891-2.109q0-0.281 0.094-0.656zM2.016 4.266l1.266-1.266 17.719 17.719-1.266 1.266q-0.234-0.234-1.477-1.453t-1.898-1.875q-2.016 0.844-4.359 0.844-3.703 0-6.703-2.063t-4.313-5.438q0.516-1.219 1.617-2.695t2.133-2.273q-0.563-0.563-1.57-1.594t-1.148-1.172zM12 6.984q-0.938 0-1.828 0.375l-2.156-2.156q1.828-0.703 3.984-0.703 3.703 0 6.68 2.063t4.289 5.438q-1.125 2.766-3.422 4.734l-2.906-2.906q0.375-0.891 0.375-1.828 0-2.063-1.477-3.539t-3.539-1.477z"></path>
        </symbol>
        <symbol id="icon-visibility" viewBox="0 0 24 24">
            <path
                d="M12 9q1.219 0 2.109 0.891t0.891 2.109-0.891 2.109-2.109 0.891-2.109-0.891-0.891-2.109 0.891-2.109 2.109-0.891zM12 17.016q2.063 0 3.539-1.477t1.477-3.539-1.477-3.539-3.539-1.477-3.539 1.477-1.477 3.539 1.477 3.539 3.539 1.477zM12 4.5q3.703 0 6.703 2.063t4.313 5.438q-1.313 3.375-4.313 5.438t-6.703 2.063-6.703-2.063-4.313-5.438q1.313-3.375 4.313-5.438t6.703-2.063z"></path>
        </symbol>
        <symbol id="icon-favorite" viewBox="0 0 24 24">
            <path
                d="M12.094 18.563q2.25-2.016 3.328-3.047t2.344-2.438 1.758-2.484 0.492-2.109q0-1.5-1.008-2.484t-2.508-0.984q-1.172 0-2.18 0.656t-1.383 1.688h-1.875q-0.375-1.031-1.383-1.688t-2.18-0.656q-1.5 0-2.508 0.984t-1.008 2.484q0 1.031 0.492 2.109t1.758 2.484 2.344 2.438 3.328 3.047l0.094 0.094zM16.5 3q2.344 0 3.914 1.594t1.57 3.891q0 1.359-0.516 2.648t-1.898 2.883-2.508 2.672-3.609 3.328l-1.453 1.313-1.453-1.266q-3.234-2.906-4.664-4.359t-2.648-3.422-1.219-3.797q0-2.297 1.57-3.891t3.914-1.594q2.719 0 4.5 2.109 1.781-2.109 4.5-2.109z"></path>
        </symbol>
        <symbol id="icon-play_arrow" viewBox="0 0 24 24">
            <path d="M8.016 5.016l10.969 6.984-10.969 6.984v-13.969z"></path>
        </symbol>
        <symbol id="icon-upload" viewBox="0 0 24 24">
            <path
                d="M20 15v4c0 0.276-0.111 0.525-0.293 0.707s-0.431 0.293-0.707 0.293h-14c-0.276 0-0.525-0.111-0.707-0.293s-0.293-0.431-0.293-0.707v-4c0-0.552-0.448-1-1-1s-1 0.448-1 1v4c0 0.828 0.337 1.58 0.879 2.121s1.293 0.879 2.121 0.879h14c0.828 0 1.58-0.337 2.121-0.879s0.879-1.293 0.879-2.121v-4c0-0.552-0.448-1-1-1s-1 0.448-1 1zM11 5.414v9.586c0 0.552 0.448 1 1 1s1-0.448 1-1v-9.586l3.293 3.293c0.391 0.391 1.024 0.391 1.414 0s0.391-1.024 0-1.414l-5-5c-0.092-0.092-0.202-0.166-0.324-0.217-0.245-0.101-0.521-0.101-0.766 0-0.118 0.049-0.228 0.121-0.324 0.217l-5 5c-0.391 0.391-0.391 1.024 0 1.414s1.024 0.391 1.414 0z"></path>
        </symbol>
        <symbol id="icon-add_circle_outline" viewBox="0 0 24 24">
            <path
                d="M12 20.016q3.281 0 5.648-2.367t2.367-5.648-2.367-5.648-5.648-2.367-5.648 2.367-2.367 5.648 2.367 5.648 5.648 2.367zM12 2.016q4.125 0 7.055 2.93t2.93 7.055-2.93 7.055-7.055 2.93-7.055-2.93-2.93-7.055 2.93-7.055 7.055-2.93zM12.984 6.984v4.031h4.031v1.969h-4.031v4.031h-1.969v-4.031h-4.031v-1.969h4.031v-4.031h1.969z"></path>
        </symbol>
        <symbol id="icon-email" viewBox="0 0 24 24">
            <path
                d="M20.016 8.016v-2.016l-8.016 5.016-8.016-5.016v2.016l8.016 4.969zM20.016 3.984q0.797 0 1.383 0.609t0.586 1.406v12q0 0.797-0.586 1.406t-1.383 0.609h-16.031q-0.797 0-1.383-0.609t-0.586-1.406v-12q0-0.797 0.586-1.406t1.383-0.609h16.031z"></path>
        </symbol>
        <symbol id="icon-phone" viewBox="0 0 24 24">
            <path
                d="M7 1c-0.828 0-1.58 0.337-2.121 0.879s-0.879 1.293-0.879 2.121v16c0 0.828 0.337 1.58 0.879 2.121s1.293 0.879 2.121 0.879h10c0.828 0 1.58-0.337 2.121-0.879s0.879-1.293 0.879-2.121v-16c0-0.828-0.337-1.58-0.879-2.121s-1.293-0.879-2.121-0.879zM7 3h10c0.276 0 0.525 0.111 0.707 0.293s0.293 0.431 0.293 0.707v16c0 0.276-0.111 0.525-0.293 0.707s-0.431 0.293-0.707 0.293h-10c-0.276 0-0.525-0.111-0.707-0.293s-0.293-0.431-0.293-0.707v-16c0-0.276 0.111-0.525 0.293-0.707s0.431-0.293 0.707-0.293zM12 19c0.552 0 1-0.448 1-1s-0.448-1-1-1-1 0.448-1 1 0.448 1 1 1z"></path>
        </symbol>
        <symbol id="icon-chevron-right" viewBox="0 0 24 24">
            <path
                d="M9.707 18.707l6-6c0.391-0.391 0.391-1.024 0-1.414l-6-6c-0.391-0.391-1.024-0.391-1.414 0s-0.391 1.024 0 1.414l5.293 5.293-5.293 5.293c-0.391 0.391-0.391 1.024 0 1.414s1.024 0.391 1.414 0z"></path>
        </symbol>
        <symbol id="icon-chevron-left" viewBox="0 0 24 24">
            <path
                d="M15.707 17.293l-5.293-5.293 5.293-5.293c0.391-0.391 0.391-1.024 0-1.414s-1.024-0.391-1.414 0l-6 6c-0.391 0.391-0.391 1.024 0 1.414l6 6c0.391 0.391 1.024 0.391 1.414 0s0.391-1.024 0-1.414z"></path>
        </symbol>
        <symbol id='icon-sidebar-arrow-box' viewBox="0 0 31 80">
            <path
                d="M30.0709 0L26.0042 5.69743C22.9513 9.96756 19.2972 13.7658 15.1362 16.9625L11.7532 19.5694C4.70424 23.5565 0.283928 30.9879 0.142478 39.0917L0.13069 39.882C-0.90661 49.6845 4.30346 59.0858 13.1794 63.3913L14.7354 64.1463C20.1812 66.5526 24.6251 70.752 27.3244 76.0602L29.3283 80L30.0709 0Z" />
        </symbol>
        <symbol id="icon-delete" viewBox="0 0 24 24">
            <path
                d="M18 7v13c0 0.276-0.111 0.525-0.293 0.707s-0.431 0.293-0.707 0.293h-10c-0.276 0-0.525-0.111-0.707-0.293s-0.293-0.431-0.293-0.707v-13zM17 5v-1c0-0.828-0.337-1.58-0.879-2.121s-1.293-0.879-2.121-0.879h-4c-0.828 0-1.58 0.337-2.121 0.879s-0.879 1.293-0.879 2.121v1h-4c-0.552 0-1 0.448-1 1s0.448 1 1 1h1v13c0 0.828 0.337 1.58 0.879 2.121s1.293 0.879 2.121 0.879h10c0.828 0 1.58-0.337 2.121-0.879s0.879-1.293 0.879-2.121v-13h1c0.552 0 1-0.448 1-1s-0.448-1-1-1zM9 5v-1c0-0.276 0.111-0.525 0.293-0.707s0.431-0.293 0.707-0.293h4c0.276 0 0.525 0.111 0.707 0.293s0.293 0.431 0.293 0.707v1z"></path>
        </symbol>
        <symbol id="icon-search" viewBox="0 0 24 24">
            <path
                d="M16.041 15.856c-0.034 0.026-0.067 0.055-0.099 0.087s-0.060 0.064-0.087 0.099c-1.258 1.213-2.969 1.958-4.855 1.958-1.933 0-3.682-0.782-4.95-2.050s-2.050-3.017-2.050-4.95 0.782-3.682 2.050-4.95 3.017-2.050 4.95-2.050 3.682 0.782 4.95 2.050 2.050 3.017 2.050 4.95c0 1.886-0.745 3.597-1.959 4.856zM21.707 20.293l-3.675-3.675c1.231-1.54 1.968-3.493 1.968-5.618 0-2.485-1.008-4.736-2.636-6.364s-3.879-2.636-6.364-2.636-4.736 1.008-6.364 2.636-2.636 3.879-2.636 6.364 1.008 4.736 2.636 6.364 3.879 2.636 6.364 2.636c2.125 0 4.078-0.737 5.618-1.968l3.675 3.675c0.391 0.391 1.024 0.391 1.414 0s0.391-1.024 0-1.414z"></path>
        </symbol>
        <symbol id="icon-birthday-cake" viewBox="0 0 28 28">
            <path
                d="M28 22v6h-28v-6c1.531 0 2.344-0.688 2.984-1.234 0.531-0.469 0.891-0.766 1.687-0.766s1.141 0.297 1.687 0.766c0.641 0.547 1.437 1.234 2.984 1.234 1.531 0 2.328-0.688 2.984-1.234 0.531-0.469 0.875-0.766 1.672-0.766s1.156 0.297 1.687 0.766c0.641 0.547 1.453 1.234 2.984 1.234s2.344-0.688 2.984-1.234c0.531-0.469 0.891-0.766 1.687-0.766 0.781 0 1.141 0.297 1.672 0.766 0.641 0.547 1.453 1.234 2.984 1.234zM28 17v3c-0.797 0-1.141-0.297-1.687-0.766-0.641-0.547-1.437-1.234-2.969-1.234-1.547 0-2.344 0.688-2.984 1.234-0.547 0.469-0.891 0.766-1.687 0.766s-1.156-0.297-1.687-0.766c-0.641-0.547-1.437-1.234-2.984-1.234-1.531 0-2.328 0.688-2.984 1.234-0.531 0.469-0.875 0.766-1.672 0.766s-1.156-0.297-1.687-0.766c-0.641-0.547-1.453-1.234-2.984-1.234-1.547 0-2.344 0.688-2.984 1.234-0.531 0.469-0.891 0.766-1.687 0.766v-3c0-1.656 1.344-3 3-3h1v-7h4v7h4v-7h4v7h4v-7h4v7h1c1.656 0 3 1.344 3 3zM8 3.5c0 1.656-0.891 2.5-2 2.5s-2-0.891-2-2c0-1.937 2-1.437 2-4 0.75 0 2 1.844 2 3.5zM16 3.5c0 1.656-0.891 2.5-2 2.5s-2-0.891-2-2c0-1.937 2-1.437 2-4 0.75 0 2 1.844 2 3.5zM24 3.5c0 1.656-0.891 2.5-2 2.5s-2-0.891-2-2c0-1.937 2-1.437 2-4 0.75 0 2 1.844 2 3.5z"></path>
        </symbol>
        <symbol id="icon-man-woman" viewBox="0 0 32 32">
            <path d="M8 3c0 1.657-1.343 3-3 3s-3-1.343-3-3c0-1.657 1.343-3 3-3s3 1.343 3 3z"></path>
            <path d="M26 3c0 1.657-1.343 3-3 3s-3-1.343-3-3c0-1.657 1.343-3 3-3s3 1.343 3 3z"></path>
            <path
                d="M8 8h-6c-1.105 0-2 0.895-2 2v10h2v12h2.5v-12h1v12h2.5v-12h2v-10c0-1.105-0.895-2-2-2z"></path>
            <path
                d="M30.469 16l1.531-1.109-4.165-6.441c-0.185-0.281-0.499-0.45-0.835-0.45h-8c-0.336 0-0.65 0.169-0.835 0.45l-4.165 6.441 1.531 1.109 3.458-4.487 1.202 2.804-4.191 7.683h3.833l0.667 10h2v-10h1v10h2l0.667-10h3.833l-4.191-7.683 1.202-2.804 3.458 4.487z"></path>
        </symbol>

        <symbol id="icon-archive" viewBox="0 0 24 24">
            <path
                d="M13 12h-3c-0.276 0-0.5 0.224-0.5 0.5s0.224 0.5 0.5 0.5h3c0.276 0 0.5-0.224 0.5-0.5s-0.224-0.5-0.5-0.5z"></path>
            <path
                d="M20 5h-17c-0.553 0-1 0.448-1 1s0.447 1 1 1h17c0.553 0 1-0.448 1-1s-0.447-1-1-1z"></path>
            <path
                d="M18 8h-13c-0.553 0-1 0.448-1 1v8c0 1.654 1.346 3 3 3h9c1.654 0 3-1.346 3-3v-8c0-0.552-0.447-1-1-1zM16 18h-9c-0.552 0-1-0.449-1-1v-7h11v7c0 0.551-0.448 1-1 1z"></path>
        </symbol>
        <symbol id="icon-shopping-basket" viewBox="0 0 20 20">
            <path
                d="M18.399 7h-5.007l-1.812 1.812c-0.453 0.453-1.056 0.702-1.696 0.702-0.642 0-1.244-0.25-1.698-0.703-0.452-0.452-0.702-1.054-0.703-1.695 0-0.039 0.010-0.077 0.011-0.116h-5.894c-0.332 0-0.6 0.268-0.6 0.6v2.4h18v-2.4c0-0.332-0.27-0.6-0.601-0.6zM10.768 7.999l5.055-5.055c0.235-0.234 0.237-0.613 0.002-0.849l-0.92-0.92c-0.234-0.234-0.614-0.233-0.85 0l-5.055 5.056c-0.488 0.488-0.488 1.28 0 1.768 0.488 0.487 1.279 0.488 1.768 0zM3.823 17.271c0.097 0.401 0.515 0.729 0.927 0.729h10.5c0.412 0 0.83-0.328 0.927-0.729l1.523-6.271h-15.4l1.523 6.271z"></path>
        </symbol>
        <symbol id="icon-lock" viewBox="0 0 24 24">
            <path
                d="M5 12h14c0.276 0 0.525 0.111 0.707 0.293s0.293 0.431 0.293 0.707v7c0 0.276-0.111 0.525-0.293 0.707s-0.431 0.293-0.707 0.293h-14c-0.276 0-0.525-0.111-0.707-0.293s-0.293-0.431-0.293-0.707v-7c0-0.276 0.111-0.525 0.293-0.707s0.431-0.293 0.707-0.293zM18 10v-3c0-1.657-0.673-3.158-1.757-4.243s-2.586-1.757-4.243-1.757-3.158 0.673-4.243 1.757-1.757 2.586-1.757 4.243v3h-1c-0.828 0-1.58 0.337-2.121 0.879s-0.879 1.293-0.879 2.121v7c0 0.828 0.337 1.58 0.879 2.121s1.293 0.879 2.121 0.879h14c0.828 0 1.58-0.337 2.121-0.879s0.879-1.293 0.879-2.121v-7c0-0.828-0.337-1.58-0.879-2.121s-1.293-0.879-2.121-0.879zM8 10v-3c0-1.105 0.447-2.103 1.172-2.828s1.723-1.172 2.828-1.172 2.103 0.447 2.828 1.172 1.172 1.723 1.172 2.828v3z"></path>
        </symbol>
        <symbol id="icon-close" viewBox="0 0 20 20">
            <path
                d="M10 8.586l-7.071-7.071-1.414 1.414 7.071 7.071-7.071 7.071 1.414 1.414 7.071-7.071 7.071 7.071 1.414-1.414-7.071-7.071 7.071-7.071-1.414-1.414-7.071 7.071z"></path>
        </symbol>
        <symbol id="icon-check" viewBox="0 0 24 24">
            <path
                d="M19.293 5.293l-10.293 10.293-4.293-4.293c-0.391-0.391-1.024-0.391-1.414 0s-0.391 1.024 0 1.414l5 5c0.391 0.391 1.024 0.391 1.414 0l11-11c0.391-0.391 0.391-1.024 0-1.414s-1.024-0.391-1.414 0z"></path>
        </symbol>

        <symbol id='icon-checkin' viewBox="0 0 24 24">
            <path
                d="M12 1.33331C6.84506 1.33981 2.66669 5.49348 2.66669 10.6171C2.66669 17.9837 9.3594 21.6933 11.3451 22.554C11.5169 22.6289 11.7005 22.6666 11.8835 22.6666C11.9226 22.6666 11.9609 22.6581 12 22.6549C12.0391 22.6581 12.0775 22.6666 12.1166 22.6666C12.2995 22.6666 12.4831 22.6289 12.655 22.554C14.6406 21.6934 21.3334 17.9837 21.3334 10.6171C21.3334 5.49348 17.1556 1.33981 12 1.33331V1.33331ZM12.1172 19.86C12.082 19.8418 12.0384 19.819 12 19.7995C11.9616 19.819 11.918 19.8418 11.8829 19.86C10.1719 18.9961 5.33335 16.069 5.33335 10.6171C5.33335 6.97198 8.32294 4.00648 12 3.99998C15.6771 4.00648 18.6667 6.97198 18.6667 10.6171C18.6667 16.069 13.8281 18.9961 12.1172 19.86Z" />
            <path
                d="M12 7.99933C10.5273 7.99933 9.33331 9.19333 9.33331 10.6667C9.33331 12.1393 10.5273 13.3333 12 13.3333C13.4726 13.3333 14.6666 12.1393 14.6666 10.6667C14.6666 9.19337 13.4726 7.99933 12 7.99933V7.99933Z" />
        </symbol>
        <symbol id="icon-film" viewBox="0 0 24 24">
            <path
                d="M16 11h-8v-8h8zM8 13h8v8h-8zM6 6h-3v-1.82c0-0.326 0.131-0.62 0.346-0.834s0.508-0.346 0.834-0.346h1.82zM3 8h3v3h-3zM6 16h-3v-3h3zM3 18h3v3h-1.82c-0.326 0-0.62-0.131-0.834-0.346s-0.346-0.508-0.346-0.834zM21 16h-3v-3h3zM18 18h3v1.82c0 0.326-0.131 0.62-0.346 0.834s-0.508 0.346-0.834 0.346h-1.82zM21 6h-3v-3h1.82c0.326 0 0.62 0.131 0.834 0.346s0.346 0.508 0.346 0.834zM23 7v-2.82c0-0.878-0.357-1.674-0.931-2.249s-1.371-0.931-2.249-0.931h-15.64c-0.878 0-1.674 0.357-2.249 0.931s-0.931 1.371-0.931 2.249v15.64c0 0.878 0.357 1.674 0.931 2.249s1.371 0.931 2.249 0.931h15.64c0.878 0 1.674-0.357 2.249-0.931s0.931-1.371 0.931-2.249zM18 8h3v3h-3z"></path>
        </symbol>
        <!-- <symbol id="icon-shopping-bag" viewBox="0 0 24 24">
            <path d="M27.453 22l0.547 4.891c0.031 0.281-0.063 0.562-0.25 0.781-0.187 0.203-0.469 0.328-0.75
        0.328h-26c-0.281
        0-0.562-0.125-0.75-0.328-0.187-0.219-0.281-0.5-0.25-0.781l0.547-4.891h26.906zM26 8.891l1.344
        12.109h-26.688l1.344-12.109c0.063-0.5 0.484-0.891 1-0.891h4v2c0 1.109 0.891 2 2 2s2-0.891
        2-2v-2h6v2c0 1.109 0.891 2 2 2s2-0.891 2-2v-2h4c0.516 0 0.938 0.391 1 0.891zM20 6v4c0
        0.547-0.453 1-1 1s-1-0.453-1-1v-4c0-2.203-1.797-4-4-4s-4 1.797-4 4v4c0 0.547-0.453 1-1
        1s-1-0.453-1-1v-4c0-3.313 2.688-6 6-6s6 2.688 6 6z"></path>
        </symbol> -->
        <symbol id="icon-subscribe" viewBox="0 0 32 32">
            <path
                d="M28 8v-4h-28v22c0 1.105 0.895 2 2 2h27c1.657 0 3-1.343 3-3v-17h-4zM26 26h-24v-20h24v20zM4 10h20v2h-20zM16 14h8v2h-8zM16 18h8v2h-8zM16 22h6v2h-6zM4 14h10v10h-10z"></path>
        </symbol>
        <symbol id="icon-shopping-bag" viewBox="0 0 32 32">
            <path d="M12 29c0 1.657-1.343 3-3 3s-3-1.343-3-3c0-1.657 1.343-3 3-3s3 1.343 3 3z"></path>
            <path d="M32 29c0 1.657-1.343 3-3 3s-3-1.343-3-3c0-1.657 1.343-3 3-3s3 1.343 3 3z"></path>
            <path
                d="M32 16v-12h-24c0-1.105-0.895-2-2-2h-6v2h4l1.502 12.877c-0.915 0.733-1.502 1.859-1.502 3.123 0 2.209 1.791 4 4 4h24v-2h-24c-1.105 0-2-0.895-2-2 0-0.007 0-0.014 0-0.020l26-3.98z"></path>
        </symbol>
        <symbol id="icon-pin" viewBox="0 0 512 512">
            <path
                d="M256 32c-88.22 0-160 68.65-160 153 0 40.17 18.31 93.59 54.42 158.78 29 52.34 62.55 99.67 80 123.22a31.75 31.75 0 0051.22 0c17.42-23.55 51-70.88 80-123.22C397.69 278.61 416 225.19 416 185c0-84.35-71.78-153-160-153zm0 224a64 64 0 1164-64 64.07 64.07 0 01-64 64z" />
        </symbol>
        <symbol id="icon-cash" viewBox="0 0 512 512" fill="white">
            <rect x="32" y="80" width="448" height="256" rx="16" ry="16"
                transform="rotate(180 256 208)" fill="none" stroke="currentColor"
                stroke-linejoin="round" stroke-width="32" />
            <path fill="none" stroke="currentColor" stroke-linecap="round" stroke-linejoin="round"
                stroke-width="32" d="M64 384h384M96 432h320" />
            <circle cx="256" cy="208" r="80" fill="none" stroke="currentColor"
                stroke-linecap="round" stroke-linejoin="round" stroke-width="32" />
            <path
                d="M480 160a80 80 0 01-80-80M32 160a80 80 0 0080-80M480 256a80 80 0 00-80 80M32 256a80 80 0 0180 80"
                fill="none" stroke="currentColor" stroke-linecap="round" stroke-linejoin="round"
                stroke-width="32" />
        </symbol>
        <symbol id="icon-up" viewBox="0 0 512 512">
            <path fill="none" stroke="currentColor" stroke-linecap="round" stroke-linejoin="round"
                stroke-width="48" d="M112 328l144-144 144 144" />
        </symbol>
        <symbol id="icon-key" viewBox="0 0 512 512">
            <path
                d="M218.1 167.17c0 13 0 25.6 4.1 37.4-43.1 50.6-156.9 184.3-167.5 194.5a20.17 20.17 0 00-6.7 15c0 8.5 5.2 16.7 9.6 21.3 6.6 6.9 34.8 33 40 28 15.4-15 18.5-19 24.8-25.2 9.5-9.3-1-28.3 2.3-36s6.8-9.2 12.5-10.4 15.8 2.9 23.7 3c8.3.1 12.8-3.4 19-9.2 5-4.6 8.6-8.9 8.7-15.6.2-9-12.8-20.9-3.1-30.4s23.7 6.2 34 5 22.8-15.5 24.1-21.6-11.7-21.8-9.7-30.7c.7-3 6.8-10 11.4-11s25 6.9 29.6 5.9c5.6-1.2 12.1-7.1 17.4-10.4 15.5 6.7 29.6 9.4 47.7 9.4 68.5 0 124-53.4 124-119.2S408.5 48 340 48s-121.9 53.37-121.9 119.17zM400 144a32 32 0 11-32-32 32 32 0 0132 32z"
                stroke="currentColor" stroke-linejoin="round" stroke-width="32" />
        </symbol>
        <symbol id="icon-notification" viewBox="0 0 24 24">
            <path
                d="M15.984 17.016v-6q0-1.922-1.078-3.211t-2.906-1.289-2.906 1.289-1.078 3.211v6h7.969zM18 15.984l2.016 2.016v0.984h-16.031v-0.984l2.016-2.016v-4.969q0-2.344 1.195-4.078t3.305-2.25v-0.703q0-0.609 0.422-1.055t1.078-0.445 1.078 0.445 0.422 1.055v0.703q2.109 0.516 3.305 2.25t1.195 4.078v4.969zM12 21.984q-0.797 0-1.406-0.586t-0.609-1.383h4.031q0 0.797-0.609 1.383t-1.406 0.586z"></path>
        </symbol>
        <symbol id="icon-document" viewBox="0 0 24 24">
            <path
                d="M17.586 7h-2.586v-2.586zM20.707 7.293l-6-6c-0.092-0.092-0.202-0.166-0.324-0.217s-0.253-0.076-0.383-0.076h-8c-0.828 0-1.58 0.337-2.121 0.879s-0.879 1.293-0.879 2.121v16c0 0.828 0.337 1.58 0.879 2.121s1.293 0.879 2.121 0.879h12c0.828 0 1.58-0.337 2.121-0.879s0.879-1.293 0.879-2.121v-12c0-0.276-0.112-0.526-0.293-0.707zM13 3v5c0 0.552 0.448 1 1 1h5v11c0 0.276-0.111 0.525-0.293 0.707s-0.431 0.293-0.707 0.293h-12c-0.276 0-0.525-0.111-0.707-0.293s-0.293-0.431-0.293-0.707v-16c0-0.276 0.111-0.525 0.293-0.707s0.431-0.293 0.707-0.293zM16 12h-8c-0.552 0-1 0.448-1 1s0.448 1 1 1h8c0.552 0 1-0.448 1-1s-0.448-1-1-1zM16 16h-8c-0.552 0-1 0.448-1 1s0.448 1 1 1h8c0.552 0 1-0.448 1-1s-0.448-1-1-1zM10 8h-2c-0.552 0-1 0.448-1 1s0.448 1 1 1h2c0.552 0 1-0.448 1-1s-0.448-1-1-1z"></path>
        </symbol>
        <symbol id="icon-title" viewBox="0 0 24 24">
            <path d="M5.016 3.984h13.969v3h-5.484v12h-3v-12h-5.484v-3z"></path>
        </symbol>
        <symbol id="icon-sub_title" viewBox="0 0 24 24">
            <path
                d="M21.516 9v3h-3v6.984h-3v-6.984h-3v-3h9zM2.484 3.984h13.031v3h-5.016v12h-3v-12h-5.016v-3z"></path>
        </symbol>
        <symbol id="icon-setting" viewBox="0 0 24 24">
            <path
                d="M12 15.516q1.453 0 2.484-1.031t1.031-2.484-1.031-2.484-2.484-1.031-2.484 1.031-1.031 2.484 1.031 2.484 2.484 1.031zM19.453 12.984l2.109 1.641q0.328 0.234 0.094 0.656l-2.016 3.469q-0.188 0.328-0.609 0.188l-2.484-0.984q-0.984 0.703-1.688 0.984l-0.375 2.625q-0.094 0.422-0.469 0.422h-4.031q-0.375 0-0.469-0.422l-0.375-2.625q-0.891-0.375-1.688-0.984l-2.484 0.984q-0.422 0.141-0.609-0.188l-2.016-3.469q-0.234-0.422 0.094-0.656l2.109-1.641q-0.047-0.328-0.047-0.984t0.047-0.984l-2.109-1.641q-0.328-0.234-0.094-0.656l2.016-3.469q0.188-0.328 0.609-0.188l2.484 0.984q0.984-0.703 1.688-0.984l0.375-2.625q0.094-0.422 0.469-0.422h4.031q0.375 0 0.469 0.422l0.375 2.625q0.891 0.375 1.688 0.984l2.484-0.984q0.422-0.141 0.609 0.188l2.016 3.469q0.234 0.422-0.094 0.656l-2.109 1.641q0.047 0.328 0.047 0.984t-0.047 0.984z"></path>
        </symbol>
        <symbol id="icon-ios" viewBox="0 0 32 32">
            <path
                d="M1.467 8.067c-0.819 0-1.467 0.64-1.467 1.44 0 0 0 0 0 0 0 0.795 0.645 1.44 1.44 1.44 0.009 0 0.019-0 0.028-0l-0.001 0c0.827 0 1.48-0.64 1.48-1.44s-0.653-1.44-1.48-1.44zM11.613 8.093c-4.48 0-7.28 3.053-7.28 7.907 0 4.893 2.8 7.933 7.28 7.933 4.453 0 7.267-3.040 7.267-7.933 0-4.853-2.813-7.907-7.267-7.907zM26.067 8.093c-3.333 0-5.707 1.84-5.707 4.573 0 2.173 1.347 3.533 4.173 4.187l1.987 0.48c1.933 0.44 2.72 1.080 2.72 2.187 0 1.28-1.293 2.187-3.133 2.187-1.88 0-3.293-0.92-3.44-2.333h-2.667c0.107 2.827 2.427 4.56 5.947 4.56 3.72 0 6.053-1.827 6.053-4.733 0-2.28-1.333-3.573-4.427-4.28l-1.773-0.4c-1.88-0.453-2.653-1.053-2.653-2.067 0-1.28 1.173-2.133 2.907-2.133 1.747 0 2.947 0.867 3.080 2.293h2.613c-0.067-2.693-2.293-4.52-5.68-4.52zM11.613 10.427c2.72 0 4.467 2.173 4.467 5.573 0 3.427-1.747 5.6-4.467 5.6-2.747 0-4.48-2.173-4.48-5.6 0-3.4 1.733-5.573 4.48-5.573zM0.148 12.413v11.267h2.652v-11.267z"></path>
        </symbol>
        <symbol id="icon-android" viewBox="0 0 24 24">
            <path
                d="M15 5.016v-1.031h-0.984v1.031h0.984zM9.984 5.016v-1.031h-0.984v1.031h0.984zM15.516 2.156q2.484 1.781 2.484 4.828h-12q0-1.266 0.703-2.672t1.734-2.156l-1.313-1.313q-0.375-0.375 0-0.703t0.703 0l1.5 1.5q1.219-0.656 2.672-0.656 1.219 0 2.625 0.656l1.5-1.5q0.375-0.328 0.703 0t0 0.703zM20.484 8.016q0.609 0 1.055 0.445t0.445 1.055v6.984q0 0.656-0.445 1.078t-1.055 0.422-1.055-0.422-0.445-1.078v-6.984q0-0.609 0.445-1.055t1.055-0.445zM3.516 8.016q0.609 0 1.055 0.445t0.445 1.055v6.984q0 0.656-0.445 1.078t-1.055 0.422-1.055-0.422-0.445-1.078v-6.984q0-0.609 0.445-1.055t1.055-0.445zM6 18v-9.984h12v9.984q0 0.422-0.281 0.703t-0.703 0.281h-1.031v3.516q0 0.656-0.445 1.078t-1.055 0.422-1.055-0.422-0.445-1.078v-3.516h-1.969v3.516q0 0.656-0.445 1.078t-1.055 0.422-1.055-0.422-0.445-1.078v-3.516h-1.031q-0.422 0-0.703-0.281t-0.281-0.703z"></path>
        </symbol>
        <symbol id="icon-calendar" viewBox="0 0 512 512">
            <rect fill="none" stroke-linejoin="round" stroke-width="32" x="48" y="80" width="416"
                height="384" rx="48" />
            <circle cx="296" cy="232" r="24" />
            <circle cx="376" cy="232" r="24" />
            <circle cx="296" cy="312" r="24" />
            <circle cx="376" cy="312" r="24" />
            <circle cx="136" cy="312" r="24" />
            <circle cx="216" cy="312" r="24" />
            <circle cx="136" cy="392" r="24" />
            <circle cx="216" cy="392" r="24" />
            <circle cx="296" cy="392" r="24" />
            <path stroke-linejoin="round" stroke-width="32" stroke-linecap="round"
                d="M128 48v32M384 48v32" />
            <path stroke-linejoin="round" stroke-width="32" d="M464 160H48" />
        </symbol>
        <symbol id="icon-plus2" viewBox="0 0 24 24" fill="currentColor">
            <path
                d="M5 13h6v6c0 0.552 0.448 1 1 1s1-0.448 1-1v-6h6c0.552 0 1-0.448 1-1s-0.448-1-1-1h-6v-6c0-0.552-0.448-1-1-1s-1 0.448-1 1v6h-6c-0.552 0-1 0.448-1 1s0.448 1 1 1z"></path>
        </symbol>
        <symbol id="icon-star-full" viewBox="0 0 32 32">
            <path
                d="M32 12.408l-11.056-1.607-4.944-10.018-4.944 10.018-11.056 1.607 8 7.798-1.889 11.011 9.889-5.199 9.889 5.199-1.889-11.011 8-7.798z"></path>
        </symbol>
        <symbol id="icon-star-empty" viewBox="0 0 32 32">
            <path
                d="M32 12.408l-11.056-1.607-4.944-10.018-4.944 10.018-11.056 1.607 8 7.798-1.889 11.011 9.889-5.199 9.889 5.199-1.889-11.011 8-7.798zM16 23.547l-6.983 3.671 1.334-7.776-5.65-5.507 7.808-1.134 3.492-7.075 3.492 7.075 7.807 1.134-5.65 5.507 1.334 7.776-6.983-3.671z"></path>
        </symbol>
        <symbol id="icon-android" viewBox="0 0 512 512">
            <path
                d="M48 59.49v393a4.33 4.33 0 007.37 3.07L260 256 55.37 56.42A4.33 4.33 0 0048 59.49zM345.8 174L89.22 32.64l-.16-.09c-4.42-2.4-8.62 3.58-5 7.06l201.13 192.32zM84.08 472.39c-3.64 3.48.56 9.46 5 7.06l.16-.09L345.8 338l-60.61-57.95zM449.38 231l-71.65-39.46L310.36 256l67.37 64.43L449.38 281c19.49-10.77 19.49-39.23 0-50z" />
        </symbol>

        <symbol id="icon-apple" viewBox="0 0 512 512">
            <path
                d="M349.13 136.86c-40.32 0-57.36 19.24-85.44 19.24-28.79 0-50.75-19.1-85.69-19.1-34.2 0-70.67 20.88-93.83 56.45-32.52 50.16-27 144.63 25.67 225.11 18.84 28.81 44 61.12 77 61.47h.6c28.68 0 37.2-18.78 76.67-19h.6c38.88 0 46.68 18.89 75.24 18.89h.6c33-.35 59.51-36.15 78.35-64.85 13.56-20.64 18.6-31 29-54.35-76.19-28.92-88.43-136.93-13.08-178.34-23-28.8-55.32-45.48-85.79-45.48z" />
            <path
                d="M340.25 32c-24 1.63-52 16.91-68.4 36.86-14.88 18.08-27.12 44.9-22.32 70.91h1.92c25.56 0 51.72-15.39 67-35.11 14.72-18.77 25.88-45.37 21.8-72.66z" />
        </symbol>

        <symbol id="icon-info" viewBox="0 0 512 512">
            <path
                d="M248 64C146.39 64 64 146.39 64 248s82.39 184 184 184 184-82.39 184-184S349.61 64 248 64z"
                fill="none" stroke="white" stroke-miterlimit="10" stroke-width="32" />
            <path fill="none" stroke="white" stroke-linecap="round" stroke-linejoin="round"
                stroke-width="32" d="M220 220h32v116" />
            <path fill="none" stroke="white" stroke-linecap="round" stroke-miterlimit="10"
                stroke-width="32" d="M208 340h88" />
            <path d="M248 130a26 26 0 1026 26 26 26 0 00-26-26z" />
        </symbol>

        <symbol id="icon-phone" viewBox="0 0 512 512">
            <rect x="128" y="16" width="256" height="480" rx="48" ry="48" stroke="currentColor"
                stroke-linecap="round" stroke-linejoin="round" stroke-width="32" />
            <path d="M176 16h24a8 8 0 018 8h0a16 16 0 0016 16h64a16 16 0 0016-16h0a8 8 0 018-8h24"
                stroke="currentColor" stroke-linecap="round" stroke-linejoin="round"
                stroke-width="32" />
        </symbol>
        <symbol id="icon-call" viewBox="0 0 32 32">
            <path
                d="M22 20c-2 2-2 4-4 4s-4-2-6-4-4-4-4-6 2-2 4-4-4-8-6-8-6 6-6 6c0 4 4.109 12.109 8 16s12 8 16 8c0 0 6-4 6-6s-6-8-8-6z"></path>
        </symbol>

        <symbol id="icon-googleplay" viewBox="0 0 32 32">
            <path fill="#607d8b" style="fill: var(--color1, #607d8b)"
                d="M1.627 0c-0.040 0.124-0.080 0.247-0.080 0.411v30.972c0 0.289 0.081 0.453 0.245 0.617l15.22-16.124zM18.039 16.944l3.935 4.060-5.617 3.2c0 0-7.14 4.059-11.077 6.319zM19.107 15.836l4.221 4.389c0.661-0.368 5.828-3.323 6.565-3.733 0.779-0.451 0.7-1.067 0.039-1.395-0.612-0.34-5.779-3.3-6.56-3.78l-4.271 4.523zM18.036 14.769l3.979-4.225-5.679-3.241c0 0-9.257-5.296-12.337-7.064l14.040 14.531z"></path>
        </symbol>
        <symbol id='icon-apple' viewBox="0 0 36 36">
            <path
                d="M26.2758 18.8332C26.2617 16.4355 27.348 14.6285 29.5418 13.2961C28.3148 11.5383 26.4586 10.5715 24.0117 10.3852C21.6949 10.2023 19.1602 11.7352 18.232 11.7352C17.2512 11.7352 15.0082 10.4484 13.2434 10.4484C9.60117 10.5047 5.73047 13.3523 5.73047 19.1461C5.73047 20.8582 6.04336 22.6266 6.66914 24.4477C7.50586 26.8453 10.5223 32.7199 13.6687 32.625C15.3141 32.5863 16.4777 31.4578 18.6187 31.4578C20.6965 31.4578 21.7723 32.625 23.6074 32.625C26.782 32.5793 29.5102 27.2391 30.3047 24.8344C26.0473 22.827 26.2758 18.9563 26.2758 18.8332ZM25.9031 28.2199C25.4004 28.9195 24.8941 29.4715 24.4301 29.8266C24.0609 30.1078 23.7762 30.2273 23.5863 30.2344C23.2699 30.2309 22.9641 30.1535 22.3664 29.925C22.3242 29.9074 22.2785 29.8898 22.2188 29.8687L22.0641 29.809C21.4523 29.5734 21.0867 29.4469 20.6191 29.3238C19.9652 29.1551 19.3148 29.0637 18.6187 29.0637C17.9086 29.0637 17.2406 29.1516 16.5762 29.3168C16.0875 29.4398 15.6762 29.577 15.075 29.802C15.0504 29.8125 14.7902 29.9109 14.7164 29.9391C14.5934 29.9848 14.4984 30.0199 14.4105 30.0516C14.0449 30.1781 13.8129 30.2309 13.6055 30.2344C13.5809 30.2344 13.5598 30.2309 13.5422 30.2273C13.5035 30.2203 13.4543 30.2062 13.398 30.1816C13.2398 30.1184 13.05 30.0023 12.8355 29.8371C12.3434 29.4539 11.802 28.8527 11.25 28.0828C10.2832 26.7258 9.36914 24.9258 8.92969 23.6637C8.38828 22.0887 8.12109 20.5805 8.12109 19.1426C8.12109 17.0262 8.74687 15.416 9.82266 14.3227C10.7473 13.3875 11.9918 12.8637 13.2609 12.8355C13.4684 12.8391 13.7707 12.8883 14.1539 12.9938C14.4563 13.0746 14.7867 13.1836 15.2332 13.3418C15.3668 13.391 15.8273 13.5563 15.8836 13.5773C16.1543 13.6758 16.3582 13.7461 16.5586 13.8094C17.1984 14.0133 17.6941 14.1258 18.232 14.1258C18.777 14.1258 19.2445 14.0098 19.909 13.7812C20.1586 13.6969 21.0656 13.3594 21.2273 13.3031C22.1273 12.9832 22.7918 12.8109 23.3648 12.7688C23.5336 12.7547 23.6848 12.7547 23.8289 12.7652C24.627 12.8285 25.309 12.9867 25.8891 13.2504C24.5672 14.7762 23.8852 16.643 23.8887 18.8191C23.8781 19.3359 23.9203 19.9336 24.068 20.6402C24.293 21.7125 24.7219 22.7742 25.4004 23.7691C25.9172 24.525 26.557 25.207 27.3234 25.8012C26.9191 26.6344 26.4234 27.4957 25.9031 28.2199ZM22.5809 8.11055C24.3633 5.99414 24.2016 4.06758 24.1488 3.375C22.5738 3.46641 20.7527 4.44727 19.7156 5.65313C18.573 6.94688 17.9016 8.54648 18.0457 10.35C19.7473 10.4801 21.3012 9.60469 22.5809 8.11055Z" />
        </symbol>


        <symbol id='icon-play-store' viewBox="0 0 28 28">
            <g clip-path="url(#clip0_6_428)">
                <path
                    d="M2.8 0.933335L3.2704 0.126935C3.12856 0.0441666 2.96739 0.000288208 2.80317 -0.000269279C2.63895 -0.000826766 2.47749 0.0419564 2.33509 0.12376C2.19269 0.205564 2.07439 0.323492 1.99215 0.465637C1.9099 0.607782 1.86662 0.769112 1.86667 0.933335H2.8ZM2.8 27.0667H1.86667C1.86662 27.2309 1.9099 27.3922 1.99215 27.5344C2.07439 27.6765 2.19269 27.7944 2.33509 27.8762C2.47749 27.958 2.63895 28.0008 2.80317 28.0003C2.96739 27.9997 3.12856 27.9558 3.2704 27.8731L2.8 27.0667ZM25.2 14L25.6704 14.8064C25.8114 14.7242 25.9284 14.6065 26.0097 14.465C26.091 14.3235 26.1338 14.1632 26.1338 14C26.1338 13.8368 26.091 13.6765 26.0097 13.535C25.9284 13.3935 25.8114 13.2758 25.6704 13.1936L25.2 14ZM1.86667 0.933335V27.0667H3.73334V0.933335H1.86667ZM3.2704 27.8731L25.6704 14.8064L24.7296 13.1936L2.3296 26.2603L3.2704 27.8731V27.8731ZM25.6704 13.1936L3.2704 0.126935L2.3296 1.73974L24.7296 14.8064L25.6704 13.1936ZM3.41414 24.0352L18.3475 10.9685L17.1192 9.5648L2.18587 22.6315L3.41414 24.0352V24.0352ZM2.18587 5.36854L17.1192 18.4352L18.3475 17.0315L3.41414 3.9648L2.18587 5.36854V5.36854Z"
                    fill="white" />
            </g>
            <defs>
                <clipPath id="clip0_6_428">
                    <rect width="28" height="28" fill="white" />
                </clipPath>
            </defs>
        </symbol>

        <symbol id='icon-apple' viewBox="0 0 36 36">
            <path
                d="M26.2758 18.8332C26.2617 16.4355 27.348 14.6285 29.5418 13.2961C28.3148 11.5383 26.4586 10.5715 24.0117 10.3852C21.6949 10.2023 19.1602 11.7352 18.232 11.7352C17.2512 11.7352 15.0082 10.4484 13.2434 10.4484C9.60117 10.5047 5.73047 13.3523 5.73047 19.1461C5.73047 20.8582 6.04336 22.6266 6.66914 24.4477C7.50586 26.8453 10.5223 32.7199 13.6687 32.625C15.3141 32.5863 16.4777 31.4578 18.6187 31.4578C20.6965 31.4578 21.7723 32.625 23.6074 32.625C26.782 32.5793 29.5102 27.2391 30.3047 24.8344C26.0473 22.827 26.2758 18.9563 26.2758 18.8332ZM25.9031 28.2199C25.4004 28.9195 24.8941 29.4715 24.4301 29.8266C24.0609 30.1078 23.7762 30.2273 23.5863 30.2344C23.2699 30.2309 22.9641 30.1535 22.3664 29.925C22.3242 29.9074 22.2785 29.8898 22.2188 29.8687L22.0641 29.809C21.4523 29.5734 21.0867 29.4469 20.6191 29.3238C19.9652 29.1551 19.3148 29.0637 18.6187 29.0637C17.9086 29.0637 17.2406 29.1516 16.5762 29.3168C16.0875 29.4398 15.6762 29.577 15.075 29.802C15.0504 29.8125 14.7902 29.9109 14.7164 29.9391C14.5934 29.9848 14.4984 30.0199 14.4105 30.0516C14.0449 30.1781 13.8129 30.2309 13.6055 30.2344C13.5809 30.2344 13.5598 30.2309 13.5422 30.2273C13.5035 30.2203 13.4543 30.2062 13.398 30.1816C13.2398 30.1184 13.05 30.0023 12.8355 29.8371C12.3434 29.4539 11.802 28.8527 11.25 28.0828C10.2832 26.7258 9.36914 24.9258 8.92969 23.6637C8.38828 22.0887 8.12109 20.5805 8.12109 19.1426C8.12109 17.0262 8.74687 15.416 9.82266 14.3227C10.7473 13.3875 11.9918 12.8637 13.2609 12.8355C13.4684 12.8391 13.7707 12.8883 14.1539 12.9938C14.4563 13.0746 14.7867 13.1836 15.2332 13.3418C15.3668 13.391 15.8273 13.5563 15.8836 13.5773C16.1543 13.6758 16.3582 13.7461 16.5586 13.8094C17.1984 14.0133 17.6941 14.1258 18.232 14.1258C18.777 14.1258 19.2445 14.0098 19.909 13.7812C20.1586 13.6969 21.0656 13.3594 21.2273 13.3031C22.1273 12.9832 22.7918 12.8109 23.3648 12.7688C23.5336 12.7547 23.6848 12.7547 23.8289 12.7652C24.627 12.8285 25.309 12.9867 25.8891 13.2504C24.5672 14.7762 23.8852 16.643 23.8887 18.8191C23.8781 19.3359 23.9203 19.9336 24.068 20.6402C24.293 21.7125 24.7219 22.7742 25.4004 23.7691C25.9172 24.525 26.557 25.207 27.3234 25.8012C26.9191 26.6344 26.4234 27.4957 25.9031 28.2199ZM22.5809 8.11055C24.3633 5.99414 24.2016 4.06758 24.1488 3.375C22.5738 3.46641 20.7527 4.44727 19.7156 5.65313C18.573 6.94688 17.9016 8.54648 18.0457 10.35C19.7473 10.4801 21.3012 9.60469 22.5809 8.11055Z" />
        </symbol>


        <symbol id="icon-report" viewBox="0 0 16 16">
            <path
                d="M14.5 2h-4.5c0-1.105-0.895-2-2-2s-2 0.895-2 2h-4.5c-0.276 0-0.5 0.224-0.5 0.5v13c0 0.276 0.224 0.5 0.5 0.5h13c0.276 0 0.5-0.224 0.5-0.5v-13c0-0.276-0.224-0.5-0.5-0.5zM8 1c0.552 0 1 0.448 1 1s-0.448 1-1 1c-0.552 0-1-0.448-1-1s0.448-1 1-1zM14 15h-12v-12h2v1.5c0 0.276 0.224 0.5 0.5 0.5h7c0.276 0 0.5-0.224 0.5-0.5v-1.5h2v12z"></path>
            <path d="M7 13.414l-3.207-3.707 0.914-0.914 2.293 1.793 4.293-3.793 0.914 0.914z"></path>
        </symbol>


        <symbol id="icon-chart" viewBox="0 0 24 24">
            <path
                d="M20.289 15.501c-0.968 2.289-2.771 3.968-4.906 4.835s-4.599 0.917-6.888-0.051-3.968-2.771-4.835-4.906-0.918-4.6 0.050-6.889c0.936-2.214 2.652-3.856 4.689-4.743 0.506-0.221 0.738-0.81 0.518-1.316s-0.81-0.738-1.316-0.518c-2.489 1.084-4.589 3.094-5.733 5.798-1.183 2.798-1.119 5.812-0.062 8.419s3.112 4.814 5.909 5.997 5.812 1.119 8.419 0.062 4.814-3.112 5.997-5.909c0.215-0.509-0.023-1.095-0.532-1.311s-1.095 0.023-1.311 0.532zM20.945 11h-7.945v-7.945c2.086 0.23 3.956 1.173 5.364 2.581s2.351 3.278 2.581 5.364zM23 12c0-3.037-1.232-5.789-3.222-7.778s-4.741-3.222-7.778-3.222c-0.552 0-1 0.448-1 1v10c0 0.552 0.448 1 1 1h10c0.552 0 1-0.448 1-1z"></path>
        </symbol>
        <symbol id="icon-grid" viewBox="0 0 512 512">
            <rect x="48" y="48" width="176" height="176" rx="20" ry="20" stroke="currentColor"
                stroke-linecap="round" stroke-linejoin="round" stroke-width="32" />
            <rect x="288" y="48" width="176" height="176" rx="20" ry="20" stroke="currentColor"
                stroke-linecap="round" stroke-linejoin="round" stroke-width="32" />
            <rect x="48" y="288" width="176" height="176" rx="20" ry="20" stroke="currentColor"
                stroke-linecap="round" stroke-linejoin="round" stroke-width="32" />
            <rect x="288" y="288" width="176" height="176" rx="20" ry="20" stroke="currentColor"
                stroke-linecap="round" stroke-linejoin="round" stroke-width="32" />
        </symbol>
        <symbol id="icon-calendar" viewBox="0 0 512 512">
            <rect fill="none" stroke="currentColor" stroke-linejoin="round" stroke-width="32" x="48"
                y="80" width="416" height="384" rx="48" />
            <circle cx="296" cy="232" r="24" />
            <circle cx="376" cy="232" r="24" />
            <circle cx="296" cy="312" r="24" />
            <circle cx="376" cy="312" r="24" />
            <circle cx="136" cy="312" r="24" />
            <circle cx="216" cy="312" r="24" />
            <circle cx="136" cy="392" r="24" />
            <circle cx="216" cy="392" r="24" />
            <circle cx="296" cy="392" r="24" />
            <path fill="none" stroke="currentColor" stroke-linejoin="round" stroke-width="32"
                stroke-linecap="round" d="M128 48v32M384 48v32" />
            <path fill="none" stroke="currentColor" stroke-linejoin="round" stroke-width="32"
                d="M464 160H48" />
        </symbol>
        <symbol id="icon-stopwatch" viewBox="0 0 24 24">
            <path
                d="M12 20.016q2.906 0 4.945-2.063t2.039-4.969-2.039-4.945-4.945-2.039-4.945 2.039-2.039 4.945 2.039 4.969 4.945 2.063zM19.031 7.406q0.797 1.031 1.383 2.648t0.586 2.93q0 3.703-2.625 6.352t-6.375 2.648-6.375-2.648-2.625-6.352 2.625-6.352 6.375-2.648q1.266 0 2.93 0.609t2.695 1.406l1.406-1.453q0.75 0.609 1.406 1.406zM11.016 14.016v-6h1.969v6h-1.969zM15 0.984v2.016h-6v-2.016h6z"></path>
        </symbol>
        <symbol id="icon-dollar" viewBox="0 0 24 24">
            <path
                d="M11 11h-1.5c-0.691 0-1.314-0.279-1.768-0.732s-0.732-1.077-0.732-1.768 0.279-1.314 0.732-1.768 1.077-0.732 1.768-0.732h1.5zM13 13h1.5c0.691 0 1.314 0.279 1.768 0.732s0.732 1.077 0.732 1.768-0.279 1.314-0.732 1.768-1.077 0.732-1.768 0.732h-1.5zM17 4h-4v-3c0-0.552-0.448-1-1-1s-1 0.448-1 1v3h-1.5c-1.242 0-2.369 0.505-3.182 1.318s-1.318 1.94-1.318 3.182 0.505 2.369 1.318 3.182 1.94 1.318 3.182 1.318h1.5v5h-5c-0.552 0-1 0.448-1 1s0.448 1 1 1h5v3c0 0.552 0.448 1 1 1s1-0.448 1-1v-3h1.5c1.242 0 2.369-0.505 3.182-1.318s1.318-1.94 1.318-3.182-0.505-2.369-1.318-3.182-1.94-1.318-3.182-1.318h-1.5v-5h4c0.552 0 1-0.448 1-1s-0.448-1-1-1z"></path>
        </symbol>
        <symbol id="icon-grow" viewBox="0 0 24 24">
            <path
                d="M15.984 6h6v6l-2.297-2.297-6.281 6.281-3.984-3.984-6 6-1.406-1.406 7.406-7.406 3.984 3.984 4.875-4.875z"></path>
        </symbol>

        <symbol id='MenuIcon' viewBox="0 0 512 512">
            <path fill="none" stroke="currentColor" stroke-linecap="round" stroke-miterlimit="10"
                stroke-width="48" d="M88 152h336M88 256h336M88 360h336" />
        </symbol>
        <symbol id='CloseMenu' viewBox="0 0 24 24">
            <path fill-rule="evenodd"
                d="M4.293 4.293a1 1 0 011.414 0L10 8.586l4.293-4.293a1 1 0 111.414 1.414L11.414 10l4.293 4.293a1 1 0 01-1.414 1.414L10 11.414l-4.293 4.293a1 1 0 01-1.414-1.414L8.586 10 4.293 5.707a1 1 0 010-1.414z"
                clip-rule="evenodd" />
        </symbol>
        <symbol id="icon-trending-down" viewBox="0 0 24 24">
            <path
                d="M17 19h6c0.136 0 0.265-0.027 0.383-0.076s0.228-0.121 0.324-0.217 0.168-0.206 0.217-0.324c0.049-0.118 0.076-0.247 0.076-0.383v-6c0-0.552-0.448-1-1-1s-1 0.448-1 1v3.586l-7.793-7.793c-0.391-0.391-1.024-0.391-1.414 0l-4.293 4.293-6.793-6.793c-0.391-0.391-1.024-0.391-1.414 0s-0.391 1.024 0 1.414l7.5 7.5c0.391 0.391 1.024 0.391 1.414 0l4.293-4.293 7.086 7.086h-3.586c-0.552 0-1 0.448-1 1s0.448 1 1 1z"></path>
        </symbol>
        <symbol id='icon-salon' viewBox="0 0 900 900">
            <g transform="translate(0.000000,511.000000) scale(0.100000,-0.100000)">
                <path
                    d="M4140.6,4988.4c-84.3-49-92.1-105.8-339.1-2181.3l-243-2040.2V-544.3c0-1240.6-2-1309.2-33.3-1293.5c-184.2,80.4-317.5,109.8-495.8,109.8c-225.4-2-392-49-560.5-156.8c-588-384.2-666.4-1183.8-164.6-1658.1c213.6-199.9,429.2-286.1,725.2-286.1c305.7,0,523.3,90.1,736.9,301.8c86.2,86.2,162.7,186.2,201.9,260.7c119.6,237.1,119.6,235.2,119.6,1716.8v1348.4l123.5-5.9l121.5-5.9l9.8-1401.3l9.8-1401.3l47-117.6c147-366.5,448.8-623.2,807.5-686l70.6-13.7l11.7-207.7c5.9-139.2,25.5-254.8,54.9-344.9c100-303.8,411.6-501.7,556.6-354.7c76.4,74.5,68.6,207.7-27.4,419.4c-94.1,207.7-131.3,319.5-148.9,433.1l-13.7,88.2l145,68.6c286.1,137.2,507.6,419.4,574.2,735c39.2,184.2,37.2,288.1-9.8,468.4c-52.9,209.7-123.5,331.2-284.2,493.9c-215.6,217.6-435.1,307.7-754.6,305.8c-196-2-368.5-49-533.1-147c-107.8-66.6-109.7-66.6-92.1-19.6c9.8,27.4,17.6,593.8,17.6,1354.3V766.9l-215.6,2018.7c-119.6,1109.3-221.5,2038.3-225.4,2059.8c-9.8,45.1-111.7,164.6-141.1,164.6C4183.8,5010,4160.2,5000.2,4140.6,4988.4z M3235.2-2308.2c199.9-92.1,307.7-258.7,307.7-472.3c-2-147-35.3-233.2-133.3-343c-113.7-125.4-205.8-166.6-380.2-166.6c-170.5,0-258.7,39.2-376.3,160.7c-96,100-137.2,205.8-137.2,350.8c-2,284.2,229.3,517.4,513.5,517.4C3101.9-2261.2,3170.5-2276.8,3235.2-2308.2z M5628.2-2316c103.9-52.9,229.3-196,258.7-294c76.4-250.9-31.4-515.4-260.7-637c-58.8-31.4-113.7-43.1-225.4-43.1c-127.4,0-160.7,7.8-252.8,58.8c-127.4,70.6-207.8,172.5-250.9,321.4c-72.5,250.8,76.4,527.2,337.1,625.2C5322.5-2251.4,5534.1-2267,5628.2-2316z" />
                <path
                    d="M5618.4,4959c-23.5-29.4-41.2-76.4-41.2-105.8s17.6-76.4,41.2-105.8l39.2-51h793.8h791.8v-156.8v-156.8h-764.3c-805.5,0-856.5-5.9-889.8-88.2c-25.5-68.6-11.7-149,37.3-196l47-49h785.9h783.9v-127.4v-127.4h-791.8h-793.8l-39.2-51c-23.5-29.4-41.2-76.4-41.2-105.8s17.6-76.4,41.2-105.8l39.2-51h793.8h791.8v-127.4v-127.4h-783.9h-785.9l-47-49c-52.9-52.9-64.7-154.8-23.5-207.7c56.8-72.5,92.1-76.4,874.1-76.4h766.3v-117.6v-117.6h-766.3c-782,0-817.3-3.9-874.1-76.4c-41.2-52.9-29.4-154.8,23.5-207.7l47-49h785.9h783.9v-127.4v-127.4h-789.8h-791.8l-41.1-45.1c-54.9-58.8-54.9-149-2-217.5l39.2-51h793.8h791.8v-127.4v-127.4h-783.9h-785.9l-47-49c-52.9-52.9-64.7-154.8-23.5-207.7c56.8-72.5,92.1-76.4,874.1-76.4h766.3V1051V933.4h-766.3c-782,0-817.3-3.9-874.1-76.4c-41.2-52.9-29.4-154.8,23.5-207.7l47-49h785.9h783.9V472.9V345.5h-791.8h-793.8l-39.2-50.9c-23.5-29.4-41.2-76.4-41.2-105.8s17.6-76.4,41.2-105.8l39.2-50.9h793.8h791.8V-95.5v-127.4h-783.9h-785.9l-47-49c-52.9-52.9-64.7-154.8-23.5-207.7c56.8-72.5,92.1-76.4,874.1-76.4h766.3l3.9-1914.8l5.9-1916.8l49-86.2c64.7-111.7,150.9-158.7,301.8-158.7c139.1,0,258.7,50.9,323.4,137.2c105.8,145,100-141.1,100,4682.1c0,4290.2-2,4464.6-37.2,4541c-50.9,111.7-176.4,211.7-313.6,250.9c-96,27.4-246.9,31.4-1064.2,31.4h-954.5L5618.4,4959z" />
            </g>
        </symbol>

        <symbol id='icon-stylist' viewBox="0 0 1000 1000">
            <path
                d="M427.8,233.4c54.6,0,98.9,44.3,98.9,99c0,54.6-44.3,98.9-98.9,98.9c-54.7,0-99-44.3-99-98.9C328.9,277.7,373.1,233.4,427.8,233.4z" />
            <path
                d="M885.1,15.3C943,15.3,990,63.7,990,123.4c0,59.7-47,108.1-104.9,108.1c-57.9,0-104.9-48.4-104.9-108.1C780.2,63.7,827.2,15.3,885.1,15.3z" />
            <path
                d="M954.1,277.8c-37.9-30.8-103.8-13.6-136.5-4.5c-30.2,11.6-81.9,23.1-143.4,27.2c-24.1-31.7-69.2-49.9-69.2-49.9s-0.2-5.8-2.6-6.9c-2.3-1-14.5-1.3-16.4-1.3l-5.1-13.6l12.6-4.7l-1.7-4.5l-12.6,4.7l-1.2-3.3l12.6-4.7l-1.7-4.5l-12.6,4.7l-1.8-4.7l12.9-4.8l-1.6-4.5l-12.9,4.8l-1.3-3.3l12.9-4.8l-1.6-4.5l-12.9,4.8l-1.6-4.2l12.9-4.8l-1.6-4.4l-12.9,4.8l-1.2-3.3l12.9-4.8l-1.7-4.5l-12.8,4.8l-1.4-3.7l12.9-4.8l-1.7-4.4l-12.8,4.8l-1.3-3.3l12.9-4.8l-1.7-4.5l-12.9,4.8l-1.5-4l12.9-4.8l-1.6-4.5l-12.9,4.8l-1.2-3.3l12.9-4.8l-1.6-4.5l-12.9,4.8l-1.5-4l12.9-4.8l-1.7-4.4l-12.9,4.9l-1.2-3.3l12.9-4.8l-1.7-4.4l-12.9,4.8l-1.9-5.1l12.9-4.8l-1.6-4.4l-12.9,4.8l-1.2-3.3l12.9-4.8l-1.6-4.5l-12.9,4.8l-2.6-6.9l-6,2.2l-6.6-17.7h-0.1c-2.1-3.2-7.7-4.2-13.4-2.1c-5.7,2.1-9.3,6.6-8.8,10.4l-0.1,0.1l6.6,17.7l-5.3,2l2.5,6.9l-12.9,4.8l1.7,4.5l12.9-4.8l1.2,3.3l-12.8,4.8l1.7,4.4l12.8-4.8l1.9,5.1l-12.9,4.8l1.6,4.4l12.9-4.8l1.2,3.3l-12.9,4.8l1.7,4.4l12.9-4.8l1.5,4l-12.9,4.8l1.7,4.4l12.9-4.8l1.3,3.3l-12.9,4.8l1.6,4.4l12.9-4.8l1.5,4l-12.9,4.8l1.6,4.4l12.9-4.8l1.2,3.2l-12.8,4.8l1.7,4.4l12.9-4.8l1.4,3.8l-12.9,4.8l1.6,4.4l12.9-4.8l1.2,3.3l-12.9,4.8l1.7,4.5l12.8-4.8l1.6,4.2l-13,4.8l1.7,4.4L538,217l1.3,3.3l-12.9,4.8l1.6,4.4l12.8-4.8l1.8,4.6l-13.2,4.9l1.7,4.5l13.1-4.9l1.2,3.3l-13.1,4.8l1.7,4.4l13.1-4.9l13.7,36.5l-3.2,1.7l7.3,19.5c0,0-15.1,12.2-10,12.3c13.6-0.1,28.8,44.8,27.9,55.2c0.5,21,29.1,92.1,40.5,108.5c11.3,16.3,13.2,29.2,35.9,20.4c22.9-8.3,15.9-19.2,13.7-38.9c-1.9-17.3-21-74.2-34.7-99.5c50.9-5.3,178.4-17.4,177.9-7c-0.9,22.4-10.7,246.8-1.9,254.2l-17.9,166.3l15.9,163.5h-46.2v48.1h157.4V972v-37.7V625.4c18.5-3.6,32.6-13.4,35-33.6C965.8,528.2,996.4,312.2,954.1,277.8z M661.8,301.4c-10.1,0.5-20.4,0.8-30.8,0.8l-16.4-0.7c-0.5-6,0.2-11,2.9-13.4c3.8-3.4-15.7-2.8-15.7-2.8l-1.9-4.9C608.2,279.1,636.7,276.5,661.8,301.4z" />
            <path
                d="M126.9,817.5c10.2,1.7,20.5,3.3,31,4.9c1.1,0.2,2.2,0.3,3.3,0.5c48.4,7.1,99.3,12.2,145.7,13.9c2.8,0.1,5.4,0.2,8.2,0.2c5.9,0.2,11.7,0.3,17.3,0.3c1.6,0,3.4,0.1,5,0.1c2,0,4-0.1,6-0.1c3.3-0.1,6.4-0.1,9.6-0.2c3.9-0.1,7.8-0.2,11.6-0.4c3.1-0.1,6.1-0.2,9.1-0.4c3.7-0.3,7.2-0.6,10.7-0.8c2.9-0.2,5.7-0.5,8.5-0.7c3.4-0.4,6.6-0.8,9.8-1.2c2.6-0.4,5.3-0.7,7.8-1.1c3.1-0.5,6-1.1,9-1.7c2.3-0.5,4.6-0.9,6.8-1.4c2.9-0.6,5.5-1.5,8.2-2.2c1.9-0.6,3.9-1.1,5.6-1.7c2.8-0.9,5.2-2,7.7-3.1c1.3-0.7,2.8-1.1,4-1.7c3.5-1.8,6.6-3.7,9.3-5.8c1.4-1.1,2.7-2.4,4-4c0.5-0.7,1-1.4,1.5-2.1c0.7-1,1.5-2,2.2-3.2c0.6-0.9,1.1-2.1,1.6-3.2c0.6-1.2,1.2-2.2,1.8-3.4c0.5-1.2,1-2.5,1.6-3.8c0.5-1.3,1-2.6,1.6-3.9c0.5-1.4,0.9-3,1.4-4.4c0.5-1.5,1-2.9,1.4-4.5c0.4-1.5,0.8-3.1,1.3-4.8c0.4-1.7,0.9-3.3,1.3-5.1c0.4-1.6,0.7-3.2,1.1-4.9c0.4-1.9,0.8-3.8,1.3-5.8c0.3-1.6,0.6-3.3,0.9-5c0.4-2.2,0.8-4.3,1.2-6.6c0.3-1.6,0.5-3.3,0.8-5c0.3-2.4,0.7-4.9,1.1-7.4c0.2-1.6,0.4-3.3,0.6-4.8c0.3-2.8,0.7-5.5,1-8.4c0.2-1.5,0.3-3,0.5-4.5c0.3-3.1,0.6-6.1,0.9-9.3c0.1-1.4,0.2-2.6,0.3-4c0.3-3.3,0.6-6.8,0.8-10.1c0.1-1.2,0.2-2.5,0.3-3.7c0.2-3.6,0.5-7.2,0.7-11c0-0.9,0.1-1.9,0.1-2.9c0.2-4,0.4-8,0.7-12c0-0.8,0-1.6,0.1-2.4c0.2-4.3,0.3-8.5,0.5-12.7c0-0.6,0-1.2,0.1-1.8c0.1-4.4,0.3-8.9,0.3-13.4c0-0.2,0-0.3,0-0.5l0,0c1.2-52.8-0.7-105.8-3.7-141.5v0c0-0.3,0-0.7-0.1-1c-0.3-3.4-0.6-6.7-0.9-9.8c-0.1-1.3-0.3-2.5-0.4-3.7c-0.2-2.1-0.4-4-0.7-5.9c-0.1-1.2-0.3-2.3-0.4-3.4c-0.2-1.8-0.5-3.4-0.7-5c-0.1-0.9-0.2-1.8-0.4-2.6c-0.4-2.2-0.8-4.3-1.2-5.9c-3.6-2.6-7.8-4.6-12.2-6.4c-0.2-0.1-0.4-0.2-0.6-0.2c-4.4-1.7-9.1-3-14-4c-0.1,0-0.2-0.1-0.3-0.1c0,0-0.1,0-0.1,0c-34-6.9-77.8,0.6-96.7,0.6c-8.7,4.6-17.1,44.5-30.3,88.5c-1.7,5.7-3.5,11.3-5.4,17c0,0.1-0.1,0.3-0.1,0.5c-3.9,11.9-8.2,23.7-13,35l0,0c-2.4,5.6-4.9,11-7.5,16.2c-0.1,0.3-0.2,0.4-0.3,0.6c-2.6,5.3-5.4,10.3-8.3,15c0,0.1,0,0.1,0,0.2c-8.9,14.4-19.2,26.2-31.2,33.3c0,0,0,0,0,0c-9.4,5.7-19.7,8.5-31.4,7.5C125.9,646.2-2.2,795.6,126.9,817.5z" />
            <path
                d="M511.3,857.1l0.3,0.1l62.8-283.7L511,559.4l-4.7,21.3c1.5,97.9-5.6,219-37.5,243.9c-21.3,16.7-65.5,25.1-131.4,25.1c-34.4,0-74.6-2.5-116.6-6.9V859h106.9l-13.6,76.2h-96.4l-33,49.5h371l-32.9-49.5H420L406.5,859h104.9L511.3,857.1L511.3,857.1L511.3,857.1z" />
            <path
                d="M235.2,648.7c1.3,0.1,2.5,0.2,3.7,0.2c31.7,0,53.9-40.8,69.9-84.6c-23.9,27.6-50.8,48.8-76.6,47.1C201.2,611.8,195.9,637.2,235.2,648.7z" />
            <path
                d="M124.9,829.7c-18.6-3.2-31.9-8.7-41.4-15.4c-17.9,28.3-34,54.7-44.1,71.3H10v44.7h143.9v-44.7h-2.4l32.6-47C164.5,836,144.6,833,124.9,829.7z" />
        </symbol>

        <symbol id='icon-cart' viewBox="0 0 1024 1024">
            <path class="path1"
                d="M409.6 1024c-56.464 0-102.4-45.936-102.4-102.4s45.936-102.4 102.4-102.4 102.4 45.936 102.4 102.4-45.936 102.4-102.4 102.4zM409.6 870.4c-28.232 0-51.2 22.968-51.2 51.2s22.968 51.2 51.2 51.2 51.2-22.968 51.2-51.2-22.968-51.2-51.2-51.2z"></path>
            <path class="path2"
                d="M768 1024c-56.464 0-102.4-45.936-102.4-102.4s45.936-102.4 102.4-102.4 102.4 45.936 102.4 102.4-45.936 102.4-102.4 102.4zM768 870.4c-28.232 0-51.2 22.968-51.2 51.2s22.968 51.2 51.2 51.2 51.2-22.968 51.2-51.2-22.968-51.2-51.2-51.2z"></path>
            <path class="path3"
                d="M898.021 228.688c-12.859-15.181-32.258-23.888-53.221-23.888h-626.846l-5.085-30.506c-6.72-40.315-43.998-71.894-84.869-71.894h-51.2c-14.138 0-25.6 11.462-25.6 25.6s11.462 25.6 25.6 25.6h51.2c15.722 0 31.781 13.603 34.366 29.112l85.566 513.395c6.718 40.314 43.997 71.893 84.867 71.893h512c14.139 0 25.6-11.461 25.6-25.6s-11.461-25.6-25.6-25.6h-512c-15.722 0-31.781-13.603-34.366-29.11l-12.63-75.784 510.206-44.366c39.69-3.451 75.907-36.938 82.458-76.234l34.366-206.194c3.448-20.677-1.952-41.243-14.813-56.424zM862.331 276.694l-34.366 206.194c-2.699 16.186-20.043 32.221-36.39 33.645l-514.214 44.714-50.874-305.246h618.314c5.968 0 10.995 2.054 14.155 5.782 3.157 3.73 4.357 9.024 3.376 14.912z"></path>
        </symbol>
        <symbol id="icon-cart2" viewBox="0 0 32 32">
            <path d="M12 29c0 1.657-1.343 3-3 3s-3-1.343-3-3c0-1.657 1.343-3 3-3s3 1.343 3 3z"></path>
            <path d="M32 29c0 1.657-1.343 3-3 3s-3-1.343-3-3c0-1.657 1.343-3 3-3s3 1.343 3 3z"></path>
            <path
                d="M32 16v-12h-24c0-1.105-0.895-2-2-2h-6v2h4l1.502 12.877c-0.915 0.733-1.502 1.859-1.502 3.123 0 2.209 1.791 4 4 4h24v-2h-24c-1.105 0-2-0.895-2-2 0-0.007 0-0.014 0-0.020l26-3.98z"></path>
        </symbol>
        <symbol id="icon-home2" viewBox="0 0 32 32">
            <path
                d="M16 1l-16 16 3 3 3-3v13h8v-6h4v6h8v-13l3 3 3-3-16-16zM16 14c-1.105 0-2-0.895-2-2s0.895-2 2-2c1.105 0 2 0.895 2 2s-0.895 2-2 2z"></path>
        </symbol>

        <symbol id="icon-star_outline" viewBox="0 0 24 24">
            <path
                d="M12 15.422l3.75 2.25-0.984-4.266 3.328-2.906-4.406-0.375-1.688-4.031-1.688 4.031-4.406 0.375 3.328 2.906-0.984 4.266zM21.984 9.234l-5.438 4.734 1.641 7.031-6.188-3.75-6.188 3.75 1.641-7.031-5.438-4.734 7.172-0.609 2.813-6.609 2.813 6.609z"></path>
        </symbol>
        <symbol id="icon-star_half" viewBox="0 0 24 24">
            <path
                d="M12 15.422l3.75 2.25-0.984-4.266 3.328-2.906-4.406-0.375-1.688-4.031v9.328zM21.984 9.234l-5.438 4.734 1.641 7.031-6.188-3.75-6.188 3.75 1.641-7.031-5.438-4.734 7.172-0.609 2.813-6.609 2.813 6.609z"></path>
        </symbol>
        <symbol id="icon-star" viewBox="0 0 24 24">
            <path
                d="M12 17.25l-6.188 3.75 1.641-7.031-5.438-4.734 7.172-0.609 2.813-6.609 2.813 6.609 7.172 0.609-5.438 4.734 1.641 7.031z"></path>
        </symbol>
        <symbol id="icon-drag_indicator" viewBox="0 0 12 32">
            <!-- 0 0 768 768<path d="M319.5 415.5v-63h384v63h-384zM319.5
            607.5v-63h384v63h-384zM319.5 160.5h384v63h-384v-63zM192 223.5v321h79.5l-111
            111-112.5-111h79.5v-321h-79.5l112.5-111 111 111h-79.5z"></path> -->
            <path d="M6 22l2-2v6h4l-6 6-6-6h4v-6zM6 10.062l-2 1.938v-6h-4l6-6 6 6h-4v6z"></path>
            <!-- <path d="M15 15.984q0.797 0 1.406 0.609t0.609 1.406-0.609 1.406-1.406
            0.609-1.406-0.609-0.609-1.406 0.609-1.406 1.406-0.609zM15 9.984q0.797 0 1.406
            0.609t0.609 1.406-0.609 1.406-1.406 0.609-1.406-0.609-0.609-1.406 0.609-1.406
            1.406-0.609zM15 8.016q-0.797 0-1.406-0.609t-0.609-1.406 0.609-1.406 1.406-0.609 1.406
            0.609 0.609 1.406-0.609 1.406-1.406 0.609zM9 3.984q0.797 0 1.406 0.609t0.609 1.406-0.609
            1.406-1.406 0.609-1.406-0.609-0.609-1.406 0.609-1.406 1.406-0.609zM9 9.984q0.797 0 1.406
            0.609t0.609 1.406-0.609 1.406-1.406 0.609-1.406-0.609-0.609-1.406 0.609-1.406
            1.406-0.609zM11.016 18q0 0.797-0.609 1.406t-1.406 0.609-1.406-0.609-0.609-1.406
            0.609-1.406 1.406-0.609 1.406 0.609 0.609 1.406z"></path> -->
        </symbol>
        <symbol id='icon-support' width="24" height="24" viewBox="0 0 32 32" fill="none"
            xmlns="http://www.w3.org/2000/svg">
            <path
                d="M28 16.2933C28 8.97333 22.32 4 16 4C9.74667 4 4.00001 8.86667 4.00001 16.3733C3.20001 16.8267 2.66667 17.68 2.66667 18.6667V21.3333C2.66667 22.8 3.86667 24 5.33334 24H6.66667V15.8667C6.66667 10.7067 10.84 6.53333 16 6.53333C21.16 6.53333 25.3333 10.7067 25.3333 15.8667V25.3333H14.6667V28H25.3333C26.8 28 28 26.8 28 25.3333V23.7067C28.7867 23.2933 29.3333 22.48 29.3333 21.52V18.4533C29.3333 17.52 28.7867 16.7067 28 16.2933Z"
                fill="black" />
            <path
                d="M12 18.6667C12.7364 18.6667 13.3333 18.0697 13.3333 17.3333C13.3333 16.597 12.7364 16 12 16C11.2636 16 10.6667 16.597 10.6667 17.3333C10.6667 18.0697 11.2636 18.6667 12 18.6667Z"
                fill="black" />
            <path
                d="M20 18.6667C20.7364 18.6667 21.3333 18.0697 21.3333 17.3333C21.3333 16.597 20.7364 16 20 16C19.2636 16 18.6667 16.597 18.6667 17.3333C18.6667 18.0697 19.2636 18.6667 20 18.6667Z"
                fill="black" />
            <path
                d="M24 14.7067C23.36 10.9067 20.0533 8 16.0667 8C12.0267 8 7.68 11.3467 8.02667 16.6C11.32 15.2533 13.8 12.32 14.5067 8.74667C16.2533 12.2533 19.84 14.6667 24 14.7067Z"
                fill="black" />
        </symbol>
        <symbol id="icon-notes" viewBox="0 0 32 32">
            <path
                d="M28.681 7.159c-0.694-0.947-1.662-2.053-2.724-3.116s-2.169-2.030-3.116-2.724c-1.612-1.182-2.393-1.319-2.841-1.319h-15.5c-1.378 0-2.5 1.121-2.5 2.5v27c0 1.378 1.122 2.5 2.5 2.5h23c1.378 0 2.5-1.122 2.5-2.5v-19.5c0-0.448-0.137-1.23-1.319-2.841zM24.543 5.457c0.959 0.959 1.712 1.825 2.268 2.543h-4.811v-4.811c0.718 0.556 1.584 1.309 2.543 2.268zM28 29.5c0 0.271-0.229 0.5-0.5 0.5h-23c-0.271 0-0.5-0.229-0.5-0.5v-27c0-0.271 0.229-0.5 0.5-0.5 0 0 15.499-0 15.5 0v7c0 0.552 0.448 1 1 1h7v19.5z"></path>
            <path
                d="M23 26h-14c-0.552 0-1-0.448-1-1s0.448-1 1-1h14c0.552 0 1 0.448 1 1s-0.448 1-1 1z"></path>
            <path
                d="M23 22h-14c-0.552 0-1-0.448-1-1s0.448-1 1-1h14c0.552 0 1 0.448 1 1s-0.448 1-1 1z"></path>
            <path
                d="M23 18h-14c-0.552 0-1-0.448-1-1s0.448-1 1-1h14c0.552 0 1 0.448 1 1s-0.448 1-1 1z"></path>
        </symbol>
        <symbol id="icon-message" viewBox="0 0 36 32">
            <path
                d="M15 0v0c8.284 0 15 5.435 15 12.139s-6.716 12.139-15 12.139c-0.796 0-1.576-0.051-2.339-0.147-3.222 3.209-6.943 3.785-10.661 3.869v-0.785c2.008-0.98 3.625-2.765 3.625-4.804 0-0.285-0.022-0.564-0.063-0.837-3.392-2.225-5.562-5.625-5.562-9.434 0-6.704 6.716-12.139 15-12.139zM31.125 27.209c0 1.748 1.135 3.278 2.875 4.118v0.673c-3.223-0.072-6.181-0.566-8.973-3.316-0.661 0.083-1.337 0.126-2.027 0.126-2.983 0-5.732-0.805-7.925-2.157 4.521-0.016 8.789-1.464 12.026-4.084 1.631-1.32 2.919-2.87 3.825-4.605 0.961-1.84 1.449-3.799 1.449-5.825 0-0.326-0.014-0.651-0.039-0.974 2.268 1.873 3.664 4.426 3.664 7.24 0 3.265-1.88 6.179-4.82 8.086-0.036 0.234-0.055 0.474-0.055 0.718z"></path>
        </symbol>
        <symbol id="icon-shopcart" viewBox="0 0 16 16">
            <path
                d="M67.213,68.157H65.137l-2.953-3.949a.517.517,0,0,0-.829,0L58.4,68.157H56.326a1.056,1.056,0,0,0-1.056,1.054.987.987,0,0,0,.042.292l1.5,5.3A1.643,1.643,0,0,0,58.392,76h6.756a1.659,1.659,0,0,0,1.587-1.2l1.5-5.305a.509.509,0,0,0,.015-.077l.017-.16a.434.434,0,0,0,0-.05A1.056,1.056,0,0,0,67.213,68.157ZM61.77,65.386l2.072,2.771H59.7Zm0,7.957A1.224,1.224,0,1,1,63,72.118a1.223,1.223,0,0,1-1.227,1.224Z"
                transform="translate(-55.269 -64)"></path>
        </symbol>
        <symbol id="icon-sales" viewBox="0 0 16 16">
            <path
                d="M1.4375 1.03125C1.4375 0.923506 1.3947 0.820175 1.31851 0.743988C1.24233 0.667801 1.13899 0.625 1.03125 0.625C0.923506 0.625 0.820175 0.667801 0.743988 0.743988C0.667801 0.820175 0.625 0.923506 0.625 1.03125V8.34375C0.625 8.88247 0.839006 9.39913 1.21994 9.78006C1.60087 10.161 2.11753 10.375 2.65625 10.375H9.96875C10.0765 10.375 10.1798 10.3322 10.256 10.256C10.3322 10.1798 10.375 10.0765 10.375 9.96875C10.375 9.86101 10.3322 9.75767 10.256 9.68149C10.1798 9.6053 10.0765 9.5625 9.96875 9.5625H2.65625C2.33302 9.5625 2.02302 9.4341 1.79446 9.20554C1.5659 8.97698 1.4375 8.66698 1.4375 8.34375V1.03125ZM7.125 2.65625C7.125 2.76399 7.1678 2.86733 7.24399 2.94351C7.32017 3.0197 7.42351 3.0625 7.53125 3.0625H8.98806L6.3125 5.73806L4.97513 4.39987C4.93739 4.36204 4.89256 4.33203 4.8432 4.31155C4.79385 4.29107 4.74094 4.28052 4.6875 4.28052C4.63406 4.28052 4.58115 4.29107 4.5318 4.31155C4.48244 4.33203 4.43761 4.36204 4.39987 4.39987L2.36862 6.43112C2.33085 6.4689 2.30089 6.51374 2.28045 6.56309C2.26001 6.61244 2.24949 6.66533 2.24949 6.71875C2.24949 6.77217 2.26001 6.82506 2.28045 6.87441C2.30089 6.92376 2.33085 6.9686 2.36862 7.00638C2.4064 7.04415 2.45124 7.07411 2.50059 7.09455C2.54994 7.11499 2.60283 7.12551 2.65625 7.12551C2.70967 7.12551 2.76256 7.11499 2.81191 7.09455C2.86126 7.07411 2.9061 7.04415 2.94388 7.00638L4.6875 5.26194L6.02487 6.60013C6.06261 6.63796 6.10744 6.66797 6.1568 6.68845C6.20615 6.70893 6.25906 6.71948 6.3125 6.71948C6.36594 6.71948 6.41885 6.70893 6.4682 6.68845C6.51756 6.66797 6.56239 6.63796 6.60013 6.60013L9.5625 3.63694V5.15631C9.5625 5.26406 9.6053 5.36739 9.68149 5.44357C9.75767 5.51976 9.86101 5.56256 9.96875 5.56256C10.0765 5.56256 10.1798 5.51976 10.256 5.44357C10.3322 5.36739 10.375 5.26406 10.375 5.15631V2.65625C10.375 2.54851 10.3322 2.44517 10.256 2.36899C10.1798 2.2928 10.0765 2.25 9.96875 2.25H7.53125C7.42351 2.25 7.32017 2.2928 7.24399 2.36899C7.1678 2.44517 7.125 2.54851 7.125 2.65625Z"
                fill="white" />
        </symbol>
        <symbol id="icon-new-calendar" viewBox="0 0 18 18">
            <path
                d="M17.5156 3.5625H14.25V1.48438H13.0625V3.5625H5.9375V1.48438H4.75V3.5625H1.48438C1.24825 3.56277 1.02188 3.6567 0.854912 3.82366C0.687947 3.99063 0.594025 4.217 0.59375 4.45312V16.9219C0.594025 17.158 0.687947 17.3844 0.854912 17.5513C1.02188 17.7183 1.24825 17.8122 1.48438 17.8125H17.5156C17.7517 17.8122 17.9781 17.7183 18.1451 17.5513C18.3121 17.3844 18.406 17.158 18.4062 16.9219V4.45312C18.406 4.217 18.3121 3.99063 18.1451 3.82366C17.9781 3.6567 17.7517 3.56277 17.5156 3.5625ZM17.2188 16.625H1.78125V4.75H4.75V6.23438H5.9375V4.75H13.0625V6.23438H14.25V4.75H17.2188V16.625Z"
                fill="white" />
            <path
                d="M4.15625 8.3125H5.34375V9.5H4.15625V8.3125ZM7.42188 8.3125H8.60938V9.5H7.42188V8.3125ZM10.3906 8.3125H11.5781V9.5H10.3906V8.3125ZM13.6562 8.3125H14.8438V9.5H13.6562V8.3125ZM4.15625 10.9844H5.34375V12.1719H4.15625V10.9844ZM7.42188 10.9844H8.60938V12.1719H7.42188V10.9844ZM10.3906 10.9844H11.5781V12.1719H10.3906V10.9844ZM13.6562 10.9844H14.8438V12.1719H13.6562V10.9844ZM4.15625 13.6562H5.34375V14.8438H4.15625V13.6562ZM7.42188 13.6562H8.60938V14.8438H7.42188V13.6562ZM10.3906 13.6562H11.5781V14.8438H10.3906V13.6562ZM13.6562 13.6562H14.8438V14.8438H13.6562V13.6562Z"
                fill="white" />
        </symbol>
        <symbol id="icon-services" viewBox="0 0 18 18">
            <path
                d="M1.4 13C1.015 13 0.685301 12.8659 0.410901 12.5977C0.136501 12.3295 -0.000465478 12.0074 1.18846e-06 11.6316V4.10526C1.18846e-06 3.72895 0.137201 3.40668 0.411601 3.13847C0.686001 2.87026 1.01547 2.73639 1.4 2.73684H4.2V1.36842C4.2 0.992106 4.3372 0.669843 4.6116 0.401633C4.886 0.133422 5.21547 -0.000454979 5.6 1.16165e-06H8.4C8.785 1.16165e-06 9.1147 0.134106 9.3891 0.402317C9.6635 0.670527 9.80047 0.992562 9.8 1.36842V2.73684H12.6C12.985 2.73684 13.3147 2.87095 13.5891 3.13916C13.8635 3.40737 14.0005 3.7294 14 4.10526V11.6316C14 12.0079 13.8628 12.3302 13.5884 12.5984C13.314 12.8666 12.9845 13.0005 12.6 13H1.4ZM1.4 11.6316H12.6V4.10526H1.4V11.6316ZM5.6 2.73684H8.4V1.36842H5.6V2.73684Z"
                fill="white" />
        </symbol>
        <symbol id="icon-circle-up" viewBox="0 0 32 32">
            <path
                d="M0 16c0 8.837 7.163 16 16 16s16-7.163 16-16-7.163-16-16-16-16 7.163-16 16zM29 16c0 7.18-5.82 13-13 13s-13-5.82-13-13 5.82-13 13-13 13 5.82 13 13z"></path>
            <path d="M22.086 20.914l2.829-2.829-8.914-8.914-8.914 8.914 2.828 2.828 6.086-6.086z"></path>
        </symbol>
        <symbol id="icon-circle-down" viewBox="0 0 32 32">
            <path
                d="M32 16c0-8.837-7.163-16-16-16s-16 7.163-16 16 7.163 16 16 16 16-7.163 16-16zM3 16c0-7.18 5.82-13 13-13s13 5.82 13 13-5.82 13-13 13-13-5.82-13-13z"></path>
            <path d="M9.914 11.086l-2.829 2.829 8.914 8.914 8.914-8.914-2.828-2.828-6.086 6.086z"></path>
        </symbol>

        <symbol id="icon-sad" shape-rendering="geometricPrecision"
            text-rendering="geometricPrecision" image-rendering="optimizeQuality"
            fill-rule="evenodd" clip-rule="evenodd" viewBox="0 0 401 512.4">
            <path fill="#F44336"
                d="M200.5 64.49c42.22 0 76.43 34.22 76.43 76.43 0 42.22-34.23 76.43-76.43 76.43-42.22 0-76.43-34.23-76.43-76.43 0-42.23 34.23-76.43 76.43-76.43zm-32.42 61.85c-2.69-2.65-4.85-4.32-1.48-7.59l10.87-10.61c3.45-3.49 5.47-3.31 8.68-.02l14.65 14.65 14.57-14.56c2.66-2.7 4.32-4.86 7.59-1.49l10.62 10.88c3.48 3.44 3.3 5.46.02 8.67l-14.65 14.65 14.65 14.65c3.28 3.2 3.46 5.22-.02 8.67l-10.62 10.87c-3.27 3.37-4.93 1.21-7.59-1.48l-14.57-14.57-14.65 14.66c-3.21 3.29-5.23 3.47-8.68-.02l-10.87-10.62c-3.37-3.27-1.21-4.93 1.48-7.59l14.58-14.57-14.58-14.58z" />
            <path fill-rule="nonzero"
                d="m261.62 459.97 89.57-94.14h-89.57v94.14zM78.95 375.41h80.17v23.05H78.95v-23.05zm0-58.57h113.79v23.06H78.95v-23.06zm0-58.55h243.1v23.06H78.95v-23.06zM401 353.8 258.23 506.91a14.808 14.808 0 0 1-11.51 5.49H26.81C11.98 512.4 0 500.42 0 485.59V26.8C0 12.01 12 0 26.81 0H374.2C389 0 401 12.01 401 26.8v327zm-26.17-14.14V26.17H26.17v460.19h209.28V354.69c0-8.23 6.67-15.03 15.04-15.03h124.34z" />
        </symbol>

        <symbol id="icon-sad11" viewBox="0 0 108.67 122.88">
            <path class="cls-1"
                d="M25.14,53.37a2.77,2.77,0,0,0,0,5.54H45.25a2.77,2.77,0,0,0,0-5.54Zm60.48-36.9,6.66,6.69-8,8.14,8,8.14L85.61,46.1l-8-8.09-8,8.1L63,39.43l8-8.14-8-8.15,6.67-6.65,8,8.08,8-8.1ZM77.77,0A30.91,30.91,0,0,1,91,58.82v57.69a6.38,6.38,0,0,1-6.37,6.37H6.37A6.38,6.38,0,0,1,0,116.51V22.4A6.38,6.38,0,0,1,6.37,16h44.3A30.89,30.89,0,0,1,77.77,0Zm7.78,60.81A30.92,30.92,0,0,1,48.32,21.52H6.37a.9.9,0,0,0-.63.26.92.92,0,0,0-.26.63V116.5a.89.89,0,0,0,.89.89H84.65a.9.9,0,0,0,.63-.26.92.92,0,0,0,.26-.63V60.81ZM25.14,92.22a2.74,2.74,0,0,0,0,5.48H63.61a2.74,2.74,0,1,0,0-5.48Zm0-19.41a2.74,2.74,0,0,0,0,5.48H63.61a2.74,2.74,0,0,0,0-5.48Z" />
        </symbol>

        <symbol id="icon-checkout" viewBox="0 0 12.686 16">
            <g transform="translate(-27.023 -2)">
                <g transform="translate(27.023 5.156)">
                    <g>
                        <path
                            d="M65.7,111.043l-.714-9A1.125,1.125,0,0,0,63.871,101H62.459V103.1a.469.469,0,1,1-.937,0V101H57.211V103.1a.469.469,0,1,1-.937,0V101H54.862a1.125,1.125,0,0,0-1.117,1.033l-.715,9.006a2.605,2.605,0,0,0,2.6,2.8H63.1a2.605,2.605,0,0,0,2.6-2.806Zm-4.224-4.585-2.424,2.424a.468.468,0,0,1-.663,0l-1.136-1.136a.469.469,0,0,1,.663-.663l.8.8,2.092-2.092a.469.469,0,1,1,.663.663Z"
                            transform="translate(-53.023 -101.005)"></path>
                    </g>
                </g>
                <g transform="translate(30.274 2)">
                    <g>
                        <path
                            d="M160.132,0a3.1,3.1,0,0,0-3.093,3.093v.063h.937V3.093a2.155,2.155,0,1,1,4.311,0v.063h.937V3.093A3.1,3.1,0,0,0,160.132,0Z"
                            transform="translate(-157.039)" fill="currentColor"></path>
                    </g>
                </g>
            </g>
        </symbol>


        <symbol id="icon-web" viewBox="0 0 122.88 122.88">
            <path
                d="M5.794,62.906c2.755,2.456,5.508,4.778,8.266,6.964c3.64-5.528,7.606-10.597,11.917-15.178 c-0.814-1.533-1.274-3.284-1.274-5.139c0-0.916,0.111-1.805,0.324-2.658c-4.504-2.918-9.139-6.172-13.965-9.798 c-3.569,7.36-5.567,15.617-5.567,24.341h0.012l0,0v0.003H5.494c0,0.592,0.012,1.182,0.03,1.769L5.794,62.906L5.794,62.906z M13.726,32.231c4.831,3.644,9.454,6.91,13.938,9.831c2-2.134,4.846-3.467,7.999-3.467c2.501,0,4.805,0.839,6.65,2.25 c1.32-0.875,2.667-1.719,4.037-2.524c5.708-3.356,11.833-6.093,18.41-8.177c-0.048-0.436-0.07-0.878-0.07-1.322 c0-1.674,0.335-3.27,0.945-4.721c-6.681-5.661-14.593-10.674-23.7-15.103c-7.599,2.83-14.416,7.264-20.044,12.892 C18.783,24.995,16.039,28.467,13.726,32.231L13.726,32.231z M49.604,6.753c7.202,3.876,13.627,8.15,19.251,12.867 c1.88-1.648,4.27-2.732,6.9-2.982c0.59-2.889,1.147-5.826,1.676-8.819c-5.068-1.511-10.434-2.327-15.989-2.327v0.012l0,0h-0.005 V5.492C57.377,5.492,53.42,5.93,49.604,6.753L49.604,6.753z M82.68,9.679c-0.465,2.599-0.952,5.159-1.462,7.678 c3.667,1.376,6.499,4.46,7.526,8.284c4.964-0.365,10.127-0.436,15.504-0.2c-1.036-1.229-2.12-2.417-3.256-3.554 C95.794,16.692,89.583,12.516,82.68,9.679L82.68,9.679z M108.505,31.204c-6.871-0.515-13.387-0.528-19.562-0.063 c-0.506,2.642-1.864,4.982-3.773,6.724c1.624,2.503,3.096,5.097,4.411,7.785c1.916,3.921,3.494,8.039,4.739,12.354 c0.379-0.039,0.764-0.061,1.156-0.061c4.919,0,9.082,3.24,10.468,7.708c3.626,0.127,7.375,0.194,11.267,0.218 c0.115-1.463,0.177-2.938,0.177-4.427h-0.012v-0.003v-0.002h0.012C117.385,50.302,114.124,39.925,108.505,31.204L108.505,31.204z M116.508,71.345c-3.545-0.025-6.974-0.087-10.303-0.197c-0.889,4.27-4.266,7.631-8.547,8.497 c0.188,5.117,0.012,10.467-0.542,16.053c3.139-0.331,6.322-0.787,9.561-1.36C111.56,87.64,114.99,79.823,116.508,71.345 L116.508,71.345z M109.836,99.284l0.012,0.057l-0.066,0.012c-1.521,1.941-3.156,3.787-4.9,5.531 c-11.109,11.109-26.469,17.982-43.438,17.984v0.012h-0.002h-0.003v-0.012c-16.969,0-32.328-6.875-43.442-17.987 C6.887,93.77,0.013,78.41,0.011,61.441H0v-0.003l0,0h0.011c0-16.971,6.876-32.33,17.988-43.442S44.467,0.011,61.437,0.011V0h0.005 l0,0v0.011c16.971,0,32.33,6.874,43.441,17.988c11.112,11.109,17.985,26.468,17.985,43.438h0.012v0.002v0.003h-0.012 C122.868,75.721,118,88.857,109.836,99.284L109.836,99.284z M101.239,100.735c-1.608,0.214-3.202,0.399-4.785,0.552 c-0.197,1.415-0.419,2.844-0.66,4.29c1.826-1.422,3.563-2.952,5.198-4.587L101.239,100.735L101.239,100.735z M89.42,109.882 c0.56-2.785,1.036-5.511,1.429-8.18c-10.021,0.521-19.598-0.202-28.866-2.159c-1.812,2.149-4.521,3.52-7.551,3.52 c-0.225,0-0.447-0.009-0.665-0.022c-1.749,4.461-3.442,8.801-4.994,12.9c4.07,0.943,8.312,1.445,12.665,1.445v-0.012h0.003h0.002 v0.012C71.632,117.386,81.188,114.653,89.42,109.882L89.42,109.882z M43.483,114.436c1.699-4.516,3.395-8.876,5.118-13.278 c-2.17-1.589-3.667-4.045-3.982-6.859c-9.941-3.939-19.579-9.404-29.108-16.404c-1.528,2.574-2.991,5.242-4.393,8.005 c2.739,5.619,6.397,10.717,10.772,15.092C27.899,106.999,35.263,111.648,43.483,114.436L43.483,114.436z M8.406,79.288 c0.882-1.61,1.787-3.188,2.714-4.735c-1.63-1.283-3.259-2.612-4.885-3.984C6.728,73.56,7.458,76.477,8.406,79.288L8.406,79.288z M45.71,45.173c0.587,1.342,0.914,2.823,0.914,4.381c0,1.048-0.149,2.063-0.424,3.023c6.021,2.88,11.939,5.166,17.937,6.971 c2.18-6.527,4.275-13.305,6.226-20.396c-1.533-0.976-2.833-2.282-3.801-3.819c-6.245,1.964-12.046,4.547-17.439,7.717 C47.969,43.728,46.828,44.438,45.71,45.173L45.71,45.173z M43.39,57.325c-1.981,1.973-4.712,3.191-7.728,3.191 c-2.202,0-4.254-0.651-5.974-1.767c-4.07,4.359-7.816,9.191-11.266,14.463c8.935,6.604,17.935,11.79,27.171,15.565 c1.622-3.236,4.971-5.459,8.837-5.459c0.372,0,0.737,0.021,1.1,0.062c2.297-6.002,4.599-12.19,6.833-18.629 C56.01,62.831,49.751,60.396,43.39,57.325L43.39,57.325z M80.367,40.572c-1.091,0.317-2.245,0.487-3.44,0.487 c-0.462,0-0.92-0.023-1.369-0.075c-1.923,6.962-3.978,13.62-6.116,20.03c5.25,1.327,10.606,2.32,16.195,3.051 c0.813-1.649,2.027-3.062,3.518-4.114c-1.175-4.168-2.683-8.13-4.52-11.89C83.369,45.472,81.945,42.979,80.367,40.572 L80.367,40.572z M92.146,79.347c-4.257-1.355-7.386-5.24-7.617-9.889c-5.808-0.773-11.386-1.821-16.86-3.223 c-2.309,6.662-4.688,13.06-7.062,19.257c2.252,1.81,3.694,4.588,3.694,7.699c0,0.41-0.027,0.813-0.075,1.211 c8.756,1.741,17.821,2.329,27.323,1.757C92.175,90.272,92.37,84.671,92.146,79.347L92.146,79.347z" />
        </symbol>
        <symbol id="icon-growth" viewBox="0 0 28 28">
            <path stroke="none"
                d="M27.9951 1.18152C27.9936 1.16141 27.9923 1.1413 27.9899 1.12144C27.9874 1.10116 27.984 1.08105 27.9806 1.06095C27.9771 1.03956 27.9736 1.01818 27.9689 0.997139C27.9648 0.978473 27.9596 0.960145 27.9546 0.941648C27.9489 0.920182 27.9432 0.89863 27.9363 0.877673C27.9304 0.859176 27.9232 0.841018 27.9163 0.822776C27.9087 0.802751 27.9014 0.782642 27.8928 0.763127C27.8845 0.744036 27.875 0.725455 27.8657 0.706703C27.8568 0.6888 27.8481 0.670727 27.8384 0.653333C27.8279 0.634412 27.8161 0.61617 27.8047 0.597673C27.7942 0.581042 27.784 0.564327 27.7728 0.548206C27.7608 0.530897 27.7477 0.514267 27.7348 0.497467C27.7221 0.480836 27.7093 0.464291 27.6958 0.448424C27.6832 0.433491 27.6695 0.419151 27.6561 0.404727C27.6403 0.387927 27.6245 0.371382 27.6079 0.355345C27.6023 0.35 27.5975 0.344061 27.5918 0.3388C27.5834 0.331079 27.5744 0.32463 27.5659 0.317248C27.5485 0.301891 27.5308 0.287042 27.5126 0.272618C27.4971 0.2604 27.4814 0.248691 27.4653 0.237321C27.4479 0.224764 27.43 0.21263 27.4118 0.201006C27.3943 0.189806 27.3768 0.179115 27.3589 0.168848C27.341 0.158582 27.3229 0.148909 27.3046 0.139491C27.2858 0.129903 27.2671 0.120739 27.248 0.112255C27.2292 0.103855 27.2104 0.0960485 27.1913 0.0885818C27.1719 0.0809454 27.1523 0.0737333 27.1327 0.0671152C27.1131 0.0605818 27.0934 0.0545576 27.0735 0.0489576C27.0534 0.0432727 27.0331 0.0380121 27.0128 0.0333455C26.993 0.0287636 26.9731 0.0247758 26.9529 0.0211273C26.9315 0.0172242 26.9099 0.014 26.8882 0.0112C26.8689 0.00873939 26.8497 0.00670303 26.8302 0.00509091C26.8069 0.00322424 26.7836 0.00212121 26.7603 0.00152727C26.7491 0.00144242 26.7382 0 26.7269 0H21.636C20.9331 0 20.3633 0.569842 20.3633 1.27273C20.3633 1.97561 20.9331 2.54545 21.636 2.54545H23.814L16.0856 10.8921L12.7783 7.58486C12.5338 7.34024 12.201 7.20745 11.8542 7.21229C11.5083 7.21891 11.18 7.36595 10.9448 7.61965L0.338777 19.063C-0.139004 19.5785 -0.108459 20.3837 0.407081 20.8616C0.652123 21.0887 0.962414 21.2009 1.27194 21.2009C1.61388 21.2009 1.95497 21.0639 2.20578 20.7934L11.9132 10.3196L15.2209 13.6273C15.4656 13.872 15.8018 14.0076 16.1453 13.9998C16.4912 13.9932 16.8197 13.8459 17.0547 13.592L25.4542 4.52056V6.36364C25.4542 7.06652 26.024 7.63636 26.7269 7.63636C27.4298 7.63636 27.9996 7.06652 27.9996 6.36364V1.27273C27.9996 1.26475 27.9986 1.25712 27.9984 1.24922C27.998 1.22665 27.9967 1.20408 27.9951 1.18152Z" />
            <path stroke="none"
                d="M26.7273 25.4545H1.27273C0.569842 25.4545 0 26.0244 0 26.7273C0 27.4301 0.569842 28 1.27273 28H26.7273C27.4302 28 28 27.4301 28 26.7273C28 26.0244 27.4302 25.4545 26.7273 25.4545Z" />
        </symbol>

    </defs>
</svg>